<svg width="27" height="13" viewBox="0 0 27 13" fill="none" xmlns="http://www.w3.org/2000/svg">
<g id="Vector">
<path fill-rule="evenodd" clip-rule="evenodd" d="M27 12.9885L26.9981 11.2732C23.4983 11.2732 20.0143 11.2732 16.5304 11.2732C14.9216 11.2732 13.1618 11.3935 11.796 10.7653C10.7094 10.2655 9.73675 9.26748 9.31398 8.01673C8.26321 4.90816 10.4554 2.25209 13.0231 1.80352C15.7529 1.32664 18.2715 3.1849 18.6495 5.80781C18.6755 5.98865 18.6655 6.23802 18.7183 6.39809C18.9309 6.47553 20.1053 6.41955 20.439 6.41955C20.5132 5.20227 19.9167 3.73998 19.2569 2.7725C18.1854 1.20146 16.1006 0.00226413 13.8629 0.00937761C9.13569 0.0243898 5.93609 4.81601 7.89434 9.15187C8.89647 11.3708 11.1269 12.8829 13.8973 12.9639C16.0442 13.0267 18.2528 12.9885 20.4134 12.9885C22.609 12.9885 24.8045 12.9885 27 12.9885Z" fill="#82A6BF"/>
<path fill-rule="evenodd" clip-rule="evenodd" d="M26.9998 10.2245L26.9989 8.56742H17.442C16.3949 8.56742 15.2708 8.60608 14.2333 8.56467C13.1631 8.52197 12.506 8.20731 12.0974 7.53696C11.1128 5.9218 12.7339 3.87901 14.6232 4.5786C15.0611 4.74071 15.3033 4.96552 15.5308 5.24905C15.8199 5.60952 15.8601 5.88194 15.9645 6.41975H17.615C17.7055 5.39626 16.9658 4.12008 16.1319 3.52403C15.184 2.84644 13.9661 2.53922 12.6141 2.99811C10.3061 3.78147 9.3634 6.59867 10.8235 8.62643C11.5297 9.60716 12.4574 10.0267 13.6859 10.172C14.4533 10.2628 17.1319 10.2245 18.0835 10.2245C21.0556 10.2245 24.0277 10.2245 26.9998 10.2245Z" fill="#82A6BF"/>
<path fill-rule="evenodd" clip-rule="evenodd" d="M1.92053 1.72112L2.04471 1.73393L4.47601 1.73181L4.485 12.8553L4.4897 12.9734L6.2296 12.9807L6.24189 12.8555L6.23988 0L1.92065 0.000485202L1.92053 1.72112Z" fill="#82A6BF"/>
<path fill-rule="evenodd" clip-rule="evenodd" d="M0.00489356 4.25379L1.92053 4.2549L1.92636 12.9796L3.60662 12.9805L3.60685 2.59741L0 2.61265L0.00489356 4.25379Z" fill="#82A6BF"/>
</g>
</svg>
