<svg width="44" height="43" viewBox="0 0 44 43" fill="none" xmlns="http://www.w3.org/2000/svg">
<g id="&#208;&#154;&#208;&#189;&#208;&#190;&#208;&#191;&#208;&#186;&#208;&#176; 1&#208;&#161;">
<g id="Vector">
<path fill-rule="evenodd" clip-rule="evenodd" d="M38 29.9859L37.9978 27.8747C33.8498 27.8747 29.7207 27.8747 25.5916 27.8747C23.6849 27.8747 21.5992 28.0228 19.9805 27.2496C18.6926 26.6345 17.5399 25.4061 17.0388 23.8667C15.7934 20.0408 18.3916 16.7718 21.4347 16.2197C24.6701 15.6328 27.6552 17.9199 28.1031 21.1481C28.1339 21.3706 28.122 21.6776 28.1847 21.8746C28.4367 21.9699 29.8285 21.901 30.2239 21.901C30.312 20.4028 29.605 18.6031 28.823 17.4123C27.5531 15.4787 25.0822 14.0028 22.4301 14.0115C16.8275 14.03 13.0354 19.9274 15.3562 25.2638C16.544 27.9948 19.1874 29.8559 22.4709 29.9556C25.0154 30.0328 27.6329 29.9859 30.1937 29.9859C32.7958 29.9859 35.3979 29.9859 38 29.9859Z" fill="#82A6BF"/>
<path fill-rule="evenodd" clip-rule="evenodd" d="M37.9997 26.584L37.9987 24.5445H26.672C25.4309 24.5445 24.0988 24.5921 22.8691 24.5411C21.6008 24.4886 20.822 24.1013 20.3377 23.2763C19.1707 21.2884 21.092 18.7742 23.3313 19.6352C23.8501 19.8347 24.1373 20.1114 24.4068 20.4604C24.7495 20.904 24.7971 21.2393 24.9209 21.9012H26.8771C26.9843 20.6415 26.1076 19.0709 25.1193 18.3373C23.9959 17.5033 22.5524 17.1252 20.9501 17.69C18.2147 18.6541 17.0974 22.1214 18.8279 24.6171C19.6648 25.8242 20.7644 26.3405 22.2204 26.5193C23.1298 26.6311 26.3045 26.584 27.4323 26.584C30.9548 26.584 34.4773 26.584 37.9997 26.584Z" fill="#82A6BF"/>
<path fill-rule="evenodd" clip-rule="evenodd" d="M8.27618 16.1183L8.42336 16.1341L11.3049 16.1315L11.3156 29.8219L11.3211 29.9673L13.3832 29.9763L13.3978 29.8221L13.3954 14L8.27632 14.0006L8.27618 16.1183Z" fill="#82A6BF"/>
<path fill-rule="evenodd" clip-rule="evenodd" d="M6.0058 19.2354L8.27618 19.2368L8.28309 29.9749L10.2745 29.976L10.2748 17.1968L6 17.2156L6.0058 19.2354Z" fill="#82A6BF"/>
</g>
<rect id="Rectangle 117" x="0.5" y="0.5" width="43" height="42" rx="21" stroke="#82A6BF"/>
</g>
</svg>
