<svg width="36" height="36" viewBox="0 0 36 36" fill="none" xmlns="http://www.w3.org/2000/svg">
<path fill-rule="evenodd" clip-rule="evenodd" d="M4.37101 32.8727L2.93304 31.3973L9.14479 25.2204L10.5853 26.6235L4.37101 32.8727ZM22.5961 0H23.3787C25.8343 0 29.5025 1.65618 31.2604 3.35085L33.499 5.88597C33.9612 6.50821 34.2852 7.21534 34.6349 7.90922C35.6125 9.84809 35.8746 11.853 35.8746 14.1814C35.8746 15.8266 35.2342 18.1346 34.5406 19.517C33.0545 22.4799 31.4717 23.9247 28.8685 25.5689C28.5045 25.7988 28.1774 25.8977 27.7767 26.092C24.4572 27.6997 19.8004 27.7227 16.4516 26.0221L15.0063 25.2564L4.35266 35.8746L1.03546 32.5224C0.800175 32.2872 0.140967 31.7131 0 31.4085V31.3468L10.5305 20.7808C10.4071 20.5479 10.2641 20.3057 10.1216 20.0663C9.08896 18.3329 8.4945 15.6092 8.4945 13.4796C8.4945 10.9473 9.24599 8.63725 10.5086 6.50745C11.7314 4.44468 13.7886 2.50275 15.9125 1.45097C18.6778 0.0818274 19.9284 0.00382371 22.5951 0.000254914L22.5961 0ZM11.8481 22.5183C12.0309 22.7829 12.2922 23.0684 12.5142 23.2905C12.7363 23.5125 13.0215 23.7738 13.2693 23.9395L12.0929 25.1501L10.6888 23.7119L11.8481 22.5183ZM22.8168 25.133C21.1617 25.133 20.8114 25.1554 19.194 24.7544C18.4624 24.573 17.7884 24.3048 17.2006 24.0098C16.494 23.6555 15.3395 22.9907 14.76 22.4488C13.4072 21.1826 13.3871 21.1693 12.2861 19.517C11.4788 18.3054 10.6715 15.8059 10.6715 14.3218C10.6715 12.4049 10.6977 11.3508 11.4028 9.50702C12.1742 7.49014 13.1773 6.20792 14.6894 4.8607C14.8141 4.74981 14.8396 4.70393 14.9826 4.59228C19.2509 1.25724 24.9046 1.21543 29.1951 4.43321C29.9435 4.99453 30.2157 5.31955 30.8739 5.98385C32.018 7.1381 33.0346 9.39715 33.4187 10.8805C34.0417 13.2854 33.7483 15.7975 32.8362 18.0935C31.7075 20.9348 29.1869 23.2724 26.3479 24.3823C25.5062 24.7114 23.9354 25.1335 22.8166 25.1335L22.8168 25.133Z" fill="#0293DC"/>
<path fill-rule="evenodd" clip-rule="evenodd" d="M23.2384 18.8848H25.3445V6.24818H23.2384V18.8848Z" fill="#0293DC"/>
<path fill-rule="evenodd" clip-rule="evenodd" d="M19.0263 18.8848H21.1324V10.4604H19.0263V18.8848Z" fill="#0293DC"/>
<path fill-rule="evenodd" clip-rule="evenodd" d="M27.4506 18.8848H29.5567V10.4604H27.4506V18.8848Z" fill="#0293DC"/>
<path fill-rule="evenodd" clip-rule="evenodd" d="M14.8141 18.8849H16.7797C16.9416 18.8849 16.9903 18.836 16.9903 18.6744V14.6727H14.8141V18.8849Z" fill="#0293DC"/>
</svg>
