<svg width="60" height="60" viewBox="0 0 60 60" fill="none" xmlns="http://www.w3.org/2000/svg">
<g id="&#208;&#152;&#208;&#186;&#208;&#190;&#208;&#189;&#208;&#186;&#208;&#176; 2">
<path id="Vector" fill-rule="evenodd" clip-rule="evenodd" d="M37.0272 12.1938L39.0597 20.941L47.8071 22.9735C48.604 22.9735 54.7378 16.0143 56.2438 15.0055C56.2438 18.1533 56.3575 18.9898 55.5723 21.3641C54.2132 25.4732 50.6026 28.671 46.357 29.7246C41.0746 31.0356 39.8078 29.3002 37.9645 29.3002C36.9304 29.3002 31.1241 35.5535 30.0549 36.6227L14.5881 52.0893C13.3031 53.3743 12.0909 54.8744 10.5465 55.7811C8.79418 56.8093 6.26967 56.3342 4.96712 55.0317C3.75491 53.8195 3.14914 51.4016 4.1306 49.5999C5.18551 47.663 20.5952 32.7242 23.2588 30.0613C24.3501 28.97 30.6997 23.0742 30.6997 22.0356C30.6997 19.7555 28.324 18.2463 31.1326 11.2201C31.7904 9.57508 32.4572 9.07851 33.2749 7.97292C34.4156 6.4312 37.0344 4.98178 38.8082 4.36691C41.6661 3.37572 42.7308 3.75725 44.9946 3.75725C43.9865 5.26322 37.0272 11.3969 37.0272 12.1938ZM41.681 0.00825022C44.2946 0.00825022 50.3849 -0.327782 50.3849 3.28927C50.3849 4.38836 41.0109 12.2685 41.0109 13.3657L41.9482 18.0526L46.6352 18.9898C47.3521 18.9898 48.7502 17.2258 49.2708 16.7045L54.1924 11.7837C54.7001 11.276 56.0046 9.61668 56.7118 9.61668C60.3107 9.61668 59.9928 15.6607 59.9928 18.2508C58.9932 29.011 49.1142 35.7186 38.6671 33.2851C37.0656 34.3576 17.2153 55.1116 13.9979 57.8278C12.4692 59.118 10.6902 59.846 8.90598 60H7.47213C5.621 59.8375 3.83486 59.0439 2.39581 57.6042C0.956765 56.1652 0.162494 54.3791 0 52.528V51.0942C0.154044 49.3094 0.881368 47.5304 2.17222 46.0024C4.88847 42.785 25.6435 22.9345 26.7153 21.3336C26.1089 18.7305 26.2467 18.6161 26.2467 15.9434C26.2467 7.58814 33.7032 0.836305 41.681 0.00825022Z" fill="#0293DC"/>
</g>
</svg>
