<svg width="31" height="31" viewBox="0 0 31 31" fill="none" xmlns="http://www.w3.org/2000/svg">
<path d="M15.5 0.75H15.5003C23.6421 0.75885 30.2411 7.35787 30.25 15.4997V15.5C30.25 23.6464 23.6464 30.25 15.5 30.25C7.35358 30.25 0.75 23.6464 0.75 15.5C0.75 7.35358 7.35358 0.75 15.5 0.75ZM15.5 12.3062C15.1933 12.3062 14.8992 12.1844 14.6824 11.9676C14.4656 11.7508 14.3438 11.4567 14.3438 11.15C14.3438 10.8433 14.4656 10.5492 14.6824 10.3324C14.8992 10.1156 15.1933 9.99375 15.5 9.99375C15.8067 9.99375 16.1008 10.1156 16.3176 10.3324C16.5344 10.5492 16.6563 10.8433 16.6563 11.15C16.6563 11.4567 16.5344 11.7508 16.3176 11.9676C16.1008 12.1844 15.8067 12.3062 15.5 12.3062ZM15.5 13.8C15.7586 13.8 16.0066 13.9027 16.1894 14.0856C16.3723 14.2684 16.475 14.5164 16.475 14.775V20.575C16.475 20.8336 16.3723 21.0816 16.1894 21.2644C16.0066 21.4473 15.7586 21.55 15.5 21.55C15.2414 21.55 14.9934 21.4473 14.8106 21.2644C14.6277 21.0816 14.525 20.8336 14.525 20.575V14.775C14.525 14.5164 14.6277 14.2684 14.8106 14.0856C14.9934 13.9027 15.2414 13.8 15.5 13.8ZM15.5 2.7C13.8191 2.7 12.1546 3.03108 10.6017 3.67434C9.04869 4.3176 7.63762 5.26044 6.44903 6.44903C5.26044 7.63762 4.3176 9.04868 3.67434 10.6017C3.03108 12.1546 2.7 13.8191 2.7 15.5C2.7 17.1809 3.03108 18.8454 3.67434 20.3983C4.3176 21.9513 5.26044 23.3624 6.44903 24.551C7.63762 25.7396 9.04869 26.6824 10.6017 27.3257C12.1546 27.9689 13.819 28.3 15.4998 28.3C18.8935 28.2962 22.1471 26.9464 24.5467 24.5467C26.9464 22.147 28.2962 18.8934 28.3 15.4997C28.2999 12.1051 26.9514 8.84943 24.551 6.44903C22.1505 4.04857 18.8948 2.7 15.5 2.7Z" fill="#49B1E6" stroke="#49B1E6" stroke-width="0.5"/>
</svg>
