<svg width="43" height="42" viewBox="0 0 43 42" fill="none" xmlns="http://www.w3.org/2000/svg">
<g id="&#208;&#152;&#208;&#186;&#208;&#190;&#208;&#189;&#208;&#186;&#208;&#176; 2">
<g id="Vector">
<path fill-rule="evenodd" clip-rule="evenodd" d="M3.0492 36.6268V28.65H39.5139V36.6268C39.5139 38.1419 38.5873 39.0685 37.0723 39.0685H5.49128C3.97623 39.0685 3.0492 38.1419 3.0492 36.6268ZM3.0492 15.6273H39.5139V26.0458H3.0492V15.6273ZM3.0492 5.04627C3.0492 3.53121 3.97579 2.60462 5.49085 2.60462H37.0718C38.5869 2.60462 39.5135 3.53121 39.5135 5.04627V13.0231H3.04877L3.0492 5.04627ZM0.44458 4.47649V37.197C0.44458 39.4509 2.66761 41.6735 4.92107 41.6735H37.7229C39.3457 41.6735 40.9051 40.4036 41.6574 39.015C41.836 38.6851 42.1181 37.7512 42.1181 37.2783V4.47649C42.1181 2.2226 39.8951 0 37.6416 0H4.92107C2.66544 0 0.44458 2.22086 0.44458 4.47649Z" fill="#0293DC"/>
<path fill-rule="evenodd" clip-rule="evenodd" d="M26.4908 20.6735C26.4908 21.4849 26.7038 22.0995 27.4987 22.4333C28.9129 23.0269 29.9907 21.87 29.9907 20.8365C29.9907 18.5026 26.4908 18.5783 26.4908 20.6735Z" fill="#0293DC"/>
<path fill-rule="evenodd" clip-rule="evenodd" d="M33.4094 20.8367C33.4094 22.1645 35.0326 23.2536 36.3556 22.1549C37.4599 21.2379 36.8736 18.9966 35.1243 19.0579C34.2329 19.0892 33.4094 19.8793 33.4094 20.8367Z" fill="#0293DC"/>
<path fill-rule="evenodd" clip-rule="evenodd" d="M21.1186 36.4643C21.93 36.4643 22.5445 36.2514 22.8783 35.4565C23.2034 34.682 23.0817 34.0879 22.5258 33.5103C21.3998 32.3395 19.6457 33.1878 19.5079 34.6112C19.4197 35.5252 20.2281 36.4643 21.1186 36.4643Z" fill="#0293DC"/>
<path fill-rule="evenodd" clip-rule="evenodd" d="M21.1186 19.1275C20.8513 19.1918 20.4032 19.1184 19.9182 19.7182C19.6826 20.0098 19.4553 20.5548 19.5296 21.0359C19.9082 23.4845 23.3624 22.773 23.0321 20.6378C22.8796 19.6499 21.9821 18.9198 21.1186 19.1275Z" fill="#0293DC"/>
<path fill-rule="evenodd" clip-rule="evenodd" d="M21.1186 10.4182C21.93 10.4182 22.5446 10.2048 22.8784 9.41034C23.472 7.99612 22.3151 6.91828 21.2816 6.91828C20.3128 6.91828 19.5905 7.71536 19.5084 8.56546C19.4202 9.47945 20.2281 10.4182 21.1186 10.4182Z" fill="#0293DC"/>
<path fill-rule="evenodd" clip-rule="evenodd" d="M33.4094 8.62748C33.4094 10.9526 36.9093 11.1204 36.9093 8.5462C36.9093 6.3662 33.4094 6.45573 33.4094 8.62748Z" fill="#0293DC"/>
<path fill-rule="evenodd" clip-rule="evenodd" d="M33.4094 34.6735C33.4094 36.9987 36.9093 37.1664 36.9093 34.5922C36.9093 32.4122 33.4094 32.5017 33.4094 34.6735Z" fill="#0293DC"/>
<path fill-rule="evenodd" clip-rule="evenodd" d="M26.4908 8.54573C26.4908 11.1304 29.9907 10.9391 29.9907 8.627C29.9907 6.45482 26.4908 6.36572 26.4908 8.54573Z" fill="#0293DC"/>
<path fill-rule="evenodd" clip-rule="evenodd" d="M26.4908 34.5921C26.4908 37.1767 29.9907 36.9855 29.9907 34.6733C29.9907 32.5011 26.4908 32.4121 26.4908 34.5921Z" fill="#0293DC"/>
</g>
</g>
</svg>
