<svg width="44" height="43" viewBox="0 0 44 43" fill="none" xmlns="http://www.w3.org/2000/svg">
<g id="&#208;&#154;&#208;&#189;&#208;&#190;&#208;&#191;&#208;&#186;&#208;&#176; hh">
<path id="Vector" fill-rule="evenodd" clip-rule="evenodd" d="M12.523 31.2489C12.9346 26.508 11.279 20.5457 15.1591 20.1728C17.8785 19.911 17.6758 22.3528 17.6758 24.5439L17.6953 31.2702L21.2029 31.2214C21.3264 29.0465 21.4601 21.0743 20.6596 19.5708C19.9795 18.2913 18.6214 17.3857 16.5749 17.4224C13.8956 17.4713 13.0282 19.255 12.5497 19.3334L12.56 12.0051L9 12L9.04013 31.2733L12.522 31.2499L12.523 31.2489ZM26.5224 31.2438C26.8918 26.5365 25.3052 20.5253 29.1657 20.1708C31.8604 19.9232 31.6731 22.3691 31.6731 24.5429L31.6958 31.2662L35.1776 31.2723C35.3865 29.7596 35.2167 26.8991 35.2167 25.2428C35.2167 23.4927 35.4132 21.1477 34.6909 19.6614C33.5776 17.3684 30.4847 16.854 28.323 17.9939C27.1078 18.6346 27.185 19.0034 26.543 19.3477L26.507 12.0132L23.0066 12.052L23.0189 31.2641L26.5244 31.2448L26.5224 31.2438Z" fill="#82A6BF"/>
<rect id="Rectangle 115" x="0.5" y="0.5" width="43" height="42" rx="21" stroke="#82A6BF"/>
</g>
</svg>
