<svg width="33" height="33" viewBox="0 0 33 33" fill="none" xmlns="http://www.w3.org/2000/svg">
<path fill-rule="evenodd" clip-rule="evenodd" d="M5.02743 7.34752L7.18765 5.12469C10.4092 6.93857 9.29993 7.66727 11.9009 6.3575C12.3869 6.11296 12.6377 6.0283 13.1988 5.85059C13.7725 5.66903 14.0849 5.62985 14.298 5.14498C14.4141 4.88051 14.8245 2.36137 14.8245 1.93317H18.0471C18.0601 2.51949 18.2549 3.29367 18.3599 3.94086C18.4984 4.7969 18.4526 5.28246 19.1348 5.61515C19.712 5.89677 20.3144 5.97198 20.9283 6.27074C22.8979 7.22858 22.6334 7.33493 24.9518 5.61515C25.3499 5.31989 25.2379 5.28246 25.7816 5.15582L27.8753 7.18695C27.6157 8.19761 26.0394 9.45596 26.0394 10.312L27.4065 13.8432C27.7543 14.482 28.3109 14.454 29.1144 14.5845C31.5555 14.9805 31.0665 14.2319 31.0665 17.7883C31.0665 18.2392 30.759 18.1594 30.3395 18.2217C26.5183 18.7891 27.8008 18.6446 26.7712 20.8409C26.4774 21.4681 26.039 22.0055 26.039 22.687C26.039 23.5426 27.6154 24.801 27.8438 25.7805L25.8127 27.8743C24.675 27.5821 23.6875 26.0383 22.5589 26.0383L19.0543 27.4321C18.0128 28.1048 18.6467 31.0654 17.7893 31.0654C14.5625 31.0654 14.9182 31.2827 14.778 30.3385C14.2088 26.5061 14.3491 27.8025 12.1591 26.7702C9.76311 25.6406 10.7573 25.6889 7.34822 27.9719L5.12539 25.8117C6.84551 22.6695 7.72044 23.8033 6.3582 21.0984C6.11401 20.6135 6.02795 20.3613 5.85164 19.8005C5.66903 19.2201 5.66168 18.9574 5.11559 18.7318C4.7843 18.595 2.36766 18.1846 1.93422 18.1748V14.9522C2.58806 14.9522 3.29262 14.7657 3.96045 14.6583C6.20217 14.2973 5.33879 14.0576 6.22946 12.1577C7.37481 9.71448 7.32443 10.7762 5.02813 7.34682L5.02743 7.34752ZM14.695 0H18.0356C19.0029 0.133636 19.6812 0.554833 19.9296 1.72642C20.4176 4.02797 19.9453 3.81597 20.9511 4.18539C23.1221 4.98336 22.0342 5.31954 24.2329 3.7369C26.1559 2.35262 27.3079 3.91147 28.2626 4.86616C29.6609 6.26444 30.5284 7.01063 29.0035 9.15195C28.6953 9.5847 28.4039 9.99015 28.1017 10.4414C28.421 11.0452 28.8328 11.8988 29.0039 12.6328C30.3056 12.6618 33 13.034 33 14.8241V18.1094C32.9388 18.5435 32.8191 18.9151 32.5994 19.1932C32.4571 19.3733 32.6334 19.1771 32.4109 19.3915C31.6783 20.0978 31.014 20.0587 29.7882 20.2493C28.7467 20.4113 29.127 20.2707 28.2584 22.2164C27.9831 22.8328 28.4294 23.0756 29.2627 24.2329C30.6078 26.1017 29.1483 27.2477 28.2626 28.1335C27.1165 29.2795 26.0471 30.6019 24.1587 29.2082C22.7055 28.1356 22.7737 27.9768 22.045 28.3507C20.462 29.1627 20.4582 28.4182 20.2175 30.0145C20.1528 30.4448 20.0818 30.9874 19.9618 31.4345C19.8232 31.9502 19.6868 32.1317 19.3286 32.477L19.0414 32.7054C19.0372 32.7079 18.7895 32.838 18.7877 32.8387C18.5278 32.9517 18.5152 33 18.1759 33H14.9392C13.6539 32.8779 13.1568 32.343 12.8357 30.3479C12.4995 28.2577 12.7902 29.3443 10.4414 28.1017L8.97004 29.2085C6.96795 30.6848 6.15389 29.5503 4.80179 28.1986C4.10843 27.5052 3.22265 26.9804 3.22265 25.6528C3.22265 24.0838 5.25762 23.3425 4.74057 22.2161C3.64 19.8197 4.65661 20.6576 1.70718 20.0786C0.706661 19.8823 0 18.9756 0 18.3053V14.9994C0.0965536 14.3043 0.340386 13.7494 0.900118 13.4045C2.55552 12.3844 3.6393 13.535 4.18539 12.0493C4.42188 11.4056 4.61638 10.9753 4.89835 10.4421C4.76086 10.284 4.62933 10.1346 4.49009 9.94817L3.48048 8.50861C2.39425 6.61567 4.05105 5.55708 5.18836 4.41593C6.50583 3.09391 7.1887 2.71575 8.9473 3.94436C9.44861 4.29454 9.82958 4.57615 10.3123 4.8994C10.7133 4.80599 10.7682 4.72693 11.1285 4.55551C12.7279 3.79533 12.4628 4.56636 12.7608 2.70735C12.9095 1.77855 13.2317 0.0010495 14.695 0.0010495V0Z" fill="#0293DC"/>
<path fill-rule="evenodd" clip-rule="evenodd" d="M11.344 17.1442C11.344 15.7435 11.2324 15.4556 11.8562 14.1759C12.3484 13.1659 13.0781 12.3994 14.0902 11.8981C15.8404 11.0312 18.0776 11.1229 19.5574 12.2822C22.8461 14.8591 22.1066 19.5175 18.9102 21.1008C14.9018 23.0865 11.344 19.6931 11.344 17.1439V17.1442ZM9.41048 15.9842V17.0155C9.41048 20.3501 12.6499 23.5895 15.9845 23.5895H17.0158C22.5491 23.5895 26.1506 16.0237 21.5633 11.4367C17.0039 6.87734 9.41048 10.4201 9.41048 15.9842Z" fill="#0293DC"/>
</svg>
