<svg width="15" height="11" viewBox="0 0 15 11" fill="none" xmlns="http://www.w3.org/2000/svg">
<path d="M4.84214 9.13506L1.71461 5.61648C1.5956 5.48241 1.42821 5.40112 1.24926 5.39047C1.07031 5.37983 0.894466 5.4407 0.760403 5.55971C0.626339 5.67872 0.545043 5.84611 0.534397 6.02506C0.523751 6.20401 0.584629 6.37986 0.703637 6.51392L4.30782 10.5686C4.369 10.6375 4.44361 10.6931 4.52707 10.732C4.61052 10.771 4.70106 10.7925 4.79312 10.7952C4.88518 10.7979 4.97682 10.7817 5.06241 10.7477C5.148 10.7137 5.22575 10.6626 5.29086 10.5975L14.7518 1.13648C14.8712 1.00838 14.9362 0.838937 14.9331 0.663862C14.93 0.488788 14.8591 0.321748 14.7353 0.197933C14.6115 0.0741173 14.4444 0.00319426 14.2693 0.000105284C14.0943 -0.00298369 13.9248 0.0620026 13.7967 0.181373L4.84214 9.13506Z" fill="#49B1E6"/>
</svg>
