<svg width="62" height="59" viewBox="0 0 62 59" fill="none" xmlns="http://www.w3.org/2000/svg">
<g id="&#208;&#152;&#208;&#186;&#208;&#190;&#208;&#189;&#208;&#186;&#208;&#176; 3">
<g id="Vector">
<path fill-rule="evenodd" clip-rule="evenodd" d="M11.797 29.3922C11.797 28.7182 14.7821 24.3744 15.7381 23.3427C15.9131 23.1537 16.0498 23.0442 16.231 22.856C16.4633 22.6148 16.4977 22.5034 16.7174 22.2652C17.7329 21.1635 19.8766 19.5472 21.2173 18.7338C23.3781 17.4227 26.1651 16.5565 28.7555 16.2814C29.7999 16.1705 31.498 16.1904 32.5561 16.2725C33.0829 16.3134 33.8872 16.4459 34.3507 16.5349C35.5016 16.7562 36.5096 17.0808 37.4711 17.4302C38.4377 17.7814 39.3087 18.2651 40.1711 18.7461C41.1016 19.2651 41.7662 19.7673 42.5519 20.381C43.6834 21.265 44.1927 21.8025 45.1216 22.8065C46.4225 24.2126 47.1104 25.0241 48.1914 26.7888C48.4054 27.1384 49.604 29.1346 49.604 29.3922C49.604 30.0662 46.6189 34.4099 45.6629 35.4417L44.6834 36.5191C43.7448 37.5371 41.3686 39.3704 40.1708 40.0382C37.6991 41.4166 35.5689 42.198 32.6455 42.5032C32.3257 42.5366 32.0011 42.4967 31.6851 42.522C30.4623 42.62 31.2248 42.6887 29.8045 42.5312C29.486 42.4959 29.1612 42.5363 28.8443 42.5118C25.0335 42.2168 20.4017 40.1378 17.797 37.4959C17.4229 37.1167 17.095 36.9291 16.7171 36.5188L14.8634 34.3569C14.2585 33.6143 11.797 29.9588 11.797 29.3922ZM8.56489 29.3922C8.56489 30.2653 11.0711 34.2815 11.8797 35.3822L13.4384 37.3495C13.651 37.5901 13.7983 37.6827 14.0085 37.9548C14.5239 38.6224 15.1541 39.176 15.7839 39.7055C16.038 39.9192 16.1368 40.0613 16.4003 40.2643C16.653 40.4592 16.7588 40.5841 17.0428 40.797C20.694 43.5341 25.0206 45.5531 29.917 45.5531C35.1008 45.5531 38.1429 44.7101 42.2275 42.2903C44.4156 40.994 46.216 39.2264 47.9155 37.4001L51.3261 32.5831C51.5837 32.1476 52.8364 29.801 52.8364 29.3919C52.8364 28.7594 51.0804 25.7232 50.4664 24.8077C50.1426 24.3249 49.861 23.8619 49.5216 23.4019C48.4137 21.9002 47.0453 20.279 45.6174 19.0786C45.3633 18.8648 45.2645 18.7227 45.001 18.5198C44.7482 18.3249 44.6425 18.2 44.3585 17.9871C44.0988 17.7925 43.9445 17.6792 43.6856 17.4846C40.4621 15.0618 35.7573 13.2309 31.4843 13.2309C26.308 13.2309 23.2516 14.078 19.1738 16.4938C18.1795 17.083 16.0197 18.7469 15.1996 19.5717C13.3501 21.4305 12.4659 22.5223 10.9745 24.7493L10.066 26.1918C9.81248 26.6685 8.56489 28.9723 8.56489 29.3922Z" fill="#0293DC"/>
<path fill-rule="evenodd" clip-rule="evenodd" d="M23.3547 29.3925C23.3547 28.9825 23.4777 28.209 23.5563 27.831C23.8478 26.429 24.5506 25.2086 25.5336 24.2256C26.4878 23.2714 27.7071 22.5546 29.0583 22.2652C34.4233 21.1167 38.9362 25.7087 37.8452 30.9542C37.5537 32.3563 36.8509 33.5767 35.8679 34.5596C35.2548 35.1728 34.5576 35.6853 33.7362 36.0519C32.1992 36.7377 30.777 36.8777 29.1394 36.5369C25.7874 35.8398 23.3547 32.7169 23.3547 29.3925ZM20.4162 28.8049C20.4162 31.5466 20.788 33.1255 22.2956 35.3488C23.8664 37.6655 27.1669 39.6767 30.1129 39.6767C32.8546 39.6767 34.4336 39.3048 36.6569 37.7974C38.9736 36.2266 40.9848 32.9261 40.9848 29.9801C40.9848 28.0178 40.8981 26.7506 40.0056 24.9844C38.8796 22.7565 37.4544 21.2685 35.1732 20.12C31.2526 18.1454 26.4628 19.0848 23.4277 22.1199C21.8229 23.7247 20.4162 26.3017 20.4162 28.8049Z" fill="#0293DC"/>
<path fill-rule="evenodd" clip-rule="evenodd" d="M46.94 3.67591H57.6867V14.4226H61.269V0.0935669H46.94V3.67591Z" fill="#0293DC"/>
<path fill-rule="evenodd" clip-rule="evenodd" d="M0.132202 14.4226H3.71455V3.67591H14.4613V0.0935669H0.132202V14.4226Z" fill="#0293DC"/>
<path fill-rule="evenodd" clip-rule="evenodd" d="M0.132435 58.6939H14.4615V55.1116H3.71478V44.3648H0.132435V58.6939Z" fill="#0293DC"/>
<path fill-rule="evenodd" clip-rule="evenodd" d="M57.6868 55.1116H46.9401V58.6939H61.2691V44.3648H57.6868V55.1116Z" fill="#0293DC"/>
<path fill-rule="evenodd" clip-rule="evenodd" d="M29.2314 29.4903C29.2193 29.4123 29.3114 29.0196 29.3442 28.9175C29.7994 27.4961 32.0359 27.6783 32.1462 29.3132C32.2671 31.1045 29.5364 31.4617 29.2314 29.4903ZM26.2929 29.1964C26.2929 30.7096 26.5976 31.5161 27.5413 32.4536C27.9515 32.8611 28.1429 33.0702 28.7057 33.3459C30.9043 34.4222 33.5989 33.5423 34.6543 31.3869C36.1393 28.3539 33.8624 24.9845 30.8965 24.9845C28.2829 24.9845 26.2929 26.8415 26.2929 29.1964Z" fill="#0293DC"/>
</g>
</g>
</svg>
