<svg width="109" height="25" viewBox="0 0 109 25" fill="none" xmlns="http://www.w3.org/2000/svg">
<path d="M5.20529 8.41416L11.3461 0.601045H108.391V23.5905H11.3374L5.20529 16.1991V8.41416Z" stroke="white" stroke-width="1.06928"/>
<circle cx="13.7595" cy="12.363" r="4.27711" stroke="white" stroke-width="1.06928"/>
<line x1="14.8281" y1="12.3633" x2="0.392875" y2="12.3633" stroke="white" stroke-width="1.06928"/>
<path d="M34.2285 18.0425V6.34372L31.7498 7.11363L31.393 5.91183L34.604 4.80392H35.6932V18.0425H34.2285ZM48.3195 16.2961C47.293 17.6106 45.9535 18.2678 44.301 18.2678C42.6485 18.2678 41.309 17.6168 40.2825 16.3149C39.2685 15.0004 38.7615 13.3855 38.7615 11.4701C38.7615 9.57982 39.2747 7.97742 40.3013 6.66295C41.3403 5.33597 42.6861 4.67247 44.3386 4.67247C45.991 4.67247 47.3243 5.32971 48.3383 6.64417C49.3523 7.94612 49.8593 9.55478 49.8593 11.4701C49.8593 13.3605 49.3461 14.9691 48.3195 16.2961ZM41.428 15.3197C42.1791 16.3837 43.1493 16.9158 44.3386 16.9158C45.5278 16.9158 46.4855 16.39 47.2116 15.3384C47.9502 14.2743 48.3195 12.9849 48.3195 11.4701C48.3195 9.98042 47.944 8.70351 47.1928 7.63941C46.4542 6.5628 45.4903 6.0245 44.301 6.0245C43.1117 6.0245 42.1478 6.55654 41.4092 7.62064C40.6706 8.67221 40.3013 9.95538 40.3013 11.4701C40.3013 12.9599 40.6768 14.243 41.428 15.3197ZM67.3727 16.2961C66.3462 17.6106 65.0067 18.2678 63.3542 18.2678C61.7017 18.2678 60.3622 17.6168 59.3357 16.3149C58.3216 15.0004 57.8146 13.3855 57.8146 11.4701C57.8146 9.57982 58.3279 7.97742 59.3544 6.66295C60.3935 5.33597 61.7393 4.67247 63.3917 4.67247C65.0442 4.67247 66.3775 5.32971 67.3915 6.64417C68.4055 7.94612 68.9125 9.55478 68.9125 11.4701C68.9125 13.3605 68.3992 14.9691 67.3727 16.2961ZM60.4811 15.3197C61.2323 16.3837 62.2025 16.9158 63.3917 16.9158C64.581 16.9158 65.5387 16.39 66.2648 15.3384C67.0034 14.2743 67.3727 12.9849 67.3727 11.4701C67.3727 9.98042 66.9971 8.70351 66.246 7.63941C65.5074 6.5628 64.5435 6.0245 63.3542 6.0245C62.1649 6.0245 61.201 6.55654 60.4624 7.62064C59.7237 8.67221 59.3544 9.95538 59.3544 11.4701C59.3544 12.9599 59.73 14.243 60.4811 15.3197ZM80.7961 16.2961C79.7696 17.6106 78.4301 18.2678 76.7776 18.2678C75.1251 18.2678 73.7856 17.6168 72.7591 16.3149C71.7451 15.0004 71.238 13.3855 71.238 11.4701C71.238 9.57982 71.7513 7.97742 72.7778 6.66295C73.8169 5.33597 75.1627 4.67247 76.8151 4.67247C78.4676 4.67247 79.8009 5.32971 80.8149 6.64417C81.8289 7.94612 82.3359 9.55478 82.3359 11.4701C82.3359 13.3605 81.8226 14.9691 80.7961 16.2961ZM73.9045 15.3197C74.6557 16.3837 75.6259 16.9158 76.8151 16.9158C78.0044 16.9158 78.9621 16.39 79.6882 15.3384C80.4268 14.2743 80.7961 12.9849 80.7961 11.4701C80.7961 9.98042 80.4205 8.70351 79.6694 7.63941C78.9308 6.5628 77.9669 6.0245 76.7776 6.0245C75.5883 6.0245 74.6244 6.55654 73.8858 7.62064C73.1472 8.67221 72.7778 9.95538 72.7778 11.4701C72.7778 12.9599 73.1534 14.243 73.9045 15.3197ZM94.2195 16.2961C93.193 17.6106 91.8535 18.2678 90.201 18.2678C88.5485 18.2678 87.209 17.6168 86.1825 16.3149C85.1685 15.0004 84.6615 13.3855 84.6615 11.4701C84.6615 9.57982 85.1747 7.97742 86.2013 6.66295C87.2403 5.33597 88.5861 4.67247 90.2385 4.67247C91.891 4.67247 93.2243 5.32971 94.2383 6.64417C95.2523 7.94612 95.7593 9.55478 95.7593 11.4701C95.7593 13.3605 95.246 14.9691 94.2195 16.2961ZM87.3279 15.3197C88.0791 16.3837 89.0493 16.9158 90.2385 16.9158C91.4278 16.9158 92.3855 16.39 93.1116 15.3384C93.8502 14.2743 94.2195 12.9849 94.2195 11.4701C94.2195 9.98042 93.8439 8.70351 93.0928 7.63941C92.3542 6.5628 91.3903 6.0245 90.201 6.0245C89.0117 6.0245 88.0478 6.55654 87.3092 7.62064C86.5706 8.67221 86.2013 9.95538 86.2013 11.4701C86.2013 12.9599 86.5768 14.243 87.3279 15.3197Z" fill="white"/>
</svg>
