<svg width="34" height="33" viewBox="0 0 34 33" fill="none" xmlns="http://www.w3.org/2000/svg">
<path d="M9.05526 0C10.4335 0 11.6816 0.559891 12.5849 1.46495C13.2449 2.12626 13.7206 2.97151 13.9293 3.91749H32.6851C33.2827 3.91749 33.7671 4.40289 33.7671 5.0016C33.7671 5.60031 33.2827 6.08571 32.6851 6.08571H13.9293C13.7206 7.03169 13.2445 7.87729 12.5849 8.53825C11.6816 9.44331 10.4335 10.0032 9.05526 10.0032C7.67699 10.0032 6.4289 9.44331 5.52564 8.53825C4.86565 7.87694 4.38994 7.03169 4.18123 6.08571H1.08195C0.484436 6.08571 0 5.60031 0 5.0016C0 4.40289 0.484436 3.91749 1.08195 3.91749H4.18123C4.38994 2.97151 4.866 2.12591 5.52564 1.46495C6.4289 0.559891 7.67699 0 9.05526 0ZM14.2085 22.9968C15.5868 22.9968 16.8349 23.5567 17.7381 24.4617C18.3981 25.1231 18.8738 25.9683 19.0825 26.9143H32.6851C33.2827 26.9143 33.7671 27.3997 33.7671 27.9984C33.7671 28.5971 33.2827 29.0825 32.6851 29.0825H19.0825C18.8738 30.0285 18.3978 30.8741 17.7381 31.535C16.8349 32.4401 15.5868 33 14.2085 33C12.8302 33 11.5821 32.4401 10.6789 31.535C10.0189 30.8737 9.54318 30.0285 9.33447 29.0825H1.08195C0.484436 29.0825 0 28.5971 0 27.9984C0 27.3997 0.484436 26.9143 1.08195 26.9143H9.33447C9.54318 25.9683 10.0192 25.1227 10.6789 24.4617C11.5821 23.5567 12.8302 22.9968 14.2085 22.9968ZM16.2084 25.9949C15.6967 25.4822 14.9896 25.165 14.2085 25.165C13.4274 25.165 12.7203 25.4822 12.2086 25.9949C11.697 26.5076 11.3804 27.2161 11.3804 27.9987C11.3804 28.7814 11.697 29.4899 12.2086 30.0026C12.7203 30.5153 13.4274 30.8325 14.2085 30.8325C14.9896 30.8325 15.6967 30.5153 16.2084 30.0026C16.72 29.4899 17.0366 28.7814 17.0366 27.9987C17.0366 27.2161 16.72 26.5076 16.2084 25.9949ZM24.7122 11.4797C23.3339 11.4797 22.0858 12.0396 21.1826 12.9446C20.5226 13.6059 20.0469 14.4512 19.8382 15.3972H1.0823C0.484785 15.3972 0.000349017 15.8826 0.000349017 16.4813C0.000349017 17.08 0.484785 17.5654 1.0823 17.5654H19.8382C20.0469 18.5114 20.5229 19.357 21.1826 20.0179C22.0858 20.923 23.3339 21.4829 24.7122 21.4829C26.0905 21.4829 27.3385 20.923 28.2418 20.0179C28.9018 19.3566 29.3775 18.5114 29.5862 17.5654H32.6855C33.283 17.5654 33.7674 17.08 33.7674 16.4813C33.7674 15.8826 33.283 15.3972 32.6855 15.3972H29.5862C29.3775 14.4512 28.9014 13.6056 28.2418 12.9446C27.3385 12.0396 26.0905 11.4797 24.7122 11.4797ZM22.7123 14.4778C23.224 13.9651 23.9311 13.6479 24.7122 13.6479C25.4933 13.6479 26.2004 13.9651 26.7121 14.4778C27.2237 14.9905 27.5403 15.699 27.5403 16.4816C27.5403 17.2643 27.2237 17.9728 26.7121 18.4855C26.2004 18.9982 25.4933 19.3154 24.7122 19.3154C23.9311 19.3154 23.224 18.9982 22.7123 18.4855C22.2007 17.9728 21.8841 17.2643 21.8841 16.4816C21.8841 15.699 22.2007 14.9905 22.7123 14.4778ZM11.0555 2.99809C10.5438 2.48541 9.83671 2.16822 9.05561 2.16822C8.27451 2.16822 7.5674 2.48541 7.05574 2.99809C6.54408 3.51077 6.22752 4.21929 6.22752 5.00195C6.22752 5.78461 6.54408 6.49313 7.05574 7.00581C7.5674 7.51849 8.27451 7.83568 9.05561 7.83568C9.83671 7.83568 10.5438 7.51849 11.0555 7.00581C11.5671 6.49313 11.8837 5.78461 11.8837 5.00195C11.8837 4.21929 11.5671 3.51077 11.0555 2.99809Z" fill="#0293DC"/>
</svg>
