<svg width="60" height="75" viewBox="0 0 60 75" fill="none" xmlns="http://www.w3.org/2000/svg">
<path d="M35.6554 11.7786C36.0303 11.4065 36.2409 10.902 36.2409 10.3759C36.2409 9.84979 36.0303 9.34523 35.6554 8.97317L27.1723 0.556939C26.7951 0.195533 26.29 -0.00444544 25.7656 7.50014e-05C25.2413 0.00459544 24.7397 0.213253 24.3689 0.581108C23.9982 0.948962 23.7878 1.44658 23.7833 1.96678C23.7787 2.48699 23.9803 2.98816 24.3446 3.36235L28.3322 7.3185C22.1843 7.65753 16.2904 9.86537 11.4509 13.6422C6.61136 17.4191 3.06058 22.5821 1.28065 28.4301C-0.499283 34.2781 -0.422139 40.528 1.50161 46.331C3.42536 52.134 7.10251 57.2092 12.0338 60.8673C12.4581 61.183 12.9915 61.3186 13.5165 61.2442C14.0416 61.1698 14.5153 60.8915 14.8335 60.4705C15.1518 60.0496 15.2884 59.5204 15.2134 58.9995C15.1384 58.4786 14.8579 58.0086 14.4336 57.6929C10.0421 54.4363 6.80073 49.8856 5.17296 44.6914C3.54518 39.4972 3.6143 33.9254 5.37043 28.7725C7.12657 23.6196 10.4798 19.1495 14.9508 16.0011C19.4217 12.8527 24.7815 11.1873 30.264 11.2429C30.36 11.2429 30.464 11.235 30.5559 11.2231L24.3446 17.3894C23.9803 17.7636 23.7787 18.2648 23.7833 18.785C23.7878 19.3052 23.9982 19.8028 24.3689 20.1707C24.7397 20.5385 25.2413 20.7472 25.7656 20.7517C26.29 20.7562 26.7951 20.5562 27.1723 20.1948L35.6554 11.7786ZM24.3446 62.2839C23.9697 62.656 23.7591 63.1605 23.7591 63.6866C23.7591 64.2127 23.9697 64.7173 24.3446 65.0893L32.8277 73.5056C33.2049 73.867 33.71 74.067 34.2344 74.0624C34.7587 74.0579 35.2603 73.8493 35.6311 73.4814C36.0018 73.1135 36.2122 72.6159 36.2167 72.0957C36.2213 71.5755 36.0197 71.0743 35.6554 70.7002L31.6678 66.744C37.8157 66.405 43.7096 64.1971 48.5491 60.4203C53.3886 56.6434 56.9394 51.4804 58.7193 45.6324C60.4993 39.7844 60.4221 33.5346 58.4984 27.7315C56.5746 21.9285 52.8975 16.8533 47.9662 13.1952C47.7561 13.0389 47.517 12.9251 47.2626 12.8604C47.0082 12.7958 46.7435 12.7815 46.4835 12.8183C46.2235 12.8552 45.9734 12.9424 45.7474 13.0752C45.5214 13.2079 45.324 13.3835 45.1665 13.592C45.0089 13.8004 44.8942 14.0376 44.8291 14.29C44.7639 14.5424 44.7495 14.8051 44.7866 15.063C44.8237 15.3209 44.9117 15.5691 45.0455 15.7932C45.1793 16.0174 45.3563 16.2133 45.5664 16.3696C49.9582 19.6264 53.1997 24.1774 54.8274 29.372C56.4551 34.5667 56.3856 40.1388 54.629 45.2919C52.8723 50.445 49.5184 54.9151 45.0468 58.0632C40.5752 61.2113 35.2148 62.8761 29.732 62.8196C29.6343 62.8192 29.5368 62.8258 29.4401 62.8395L35.6554 56.6731C35.8464 56.4901 35.9988 56.2712 36.1036 56.0291C36.2084 55.787 36.2636 55.5267 36.2659 55.2633C36.2682 54.9998 36.2176 54.7386 36.117 54.4947C36.0165 54.2509 35.868 54.0294 35.6802 53.8431C35.4924 53.6568 35.2692 53.5095 35.0234 53.4097C34.7776 53.31 34.5143 53.2598 34.2488 53.2621C33.9832 53.2644 33.7208 53.3191 33.4768 53.4231C33.2329 53.527 33.0122 53.6782 32.8277 53.8677L24.3446 62.2839Z" fill="#0293DC"/>
</svg>
