<svg width="19" height="11" viewBox="0 0 19 11" fill="none" xmlns="http://www.w3.org/2000/svg">
<path id="Vector" fill-rule="evenodd" clip-rule="evenodd" d="M0.119783 0.966174C0.119783 1.45919 0.202021 1.59228 0.322594 2.00582C0.411633 2.31109 0.516748 2.55979 0.635466 2.84112C0.75202 3.1173 0.863473 3.38261 0.995949 3.63117C1.05964 3.75075 1.11529 3.89633 1.18593 4.01694C1.79683 5.05879 2.01155 5.4782 2.73452 6.50918C3.17585 7.13837 3.31173 7.27602 3.75012 7.80914C4.23783 8.40219 4.97533 8.99466 5.63694 9.41378C6.84345 10.1783 8.52652 10.7184 10.0008 10.4564C11.0835 10.2638 10.4269 9.22809 10.6432 7.86893C10.6818 7.62609 10.8088 7.5284 11.091 7.5284C11.6549 7.5284 12.5147 8.19168 12.8698 8.53617C13.0403 8.70158 13.2006 8.78532 13.3546 8.97482C13.5014 9.15566 13.6493 9.27803 13.8166 9.43522C14.3239 9.91193 14.6283 10.5264 15.5427 10.5264H17.2602C17.8232 10.5264 18.0385 10.3418 18.0663 10.0847V9.95982C18.0288 9.56626 17.6637 9.06135 17.4304 8.76578C17.2908 8.58891 17.1766 8.45493 17.0257 8.28437C16.937 8.18404 16.9064 8.14819 16.813 8.05344L15.2183 6.43763C14.526 5.7798 14.8617 5.7225 15.6057 4.65715C15.8773 4.26815 16.1294 3.90941 16.4051 3.51805C16.8979 2.81835 17.1089 2.41069 17.482 1.70995C17.7856 1.13967 17.938 0.533099 16.9798 0.533099H15.1921C14.5963 0.533099 14.3658 0.768587 14.1805 1.20401C14.0013 1.62475 13.4084 2.67849 13.1743 3.04605C12.8423 3.56756 11.6582 5.36332 10.9507 5.36332C10.5242 5.36332 10.6352 4.70534 10.6352 4.16414C10.6352 3.61619 10.6656 1.67807 10.6333 1.30112C10.5885 0.776961 10.5475 0.533246 9.93414 0.533246H7.05986C6.61188 0.533246 6.20843 0.843655 6.67897 1.39484C7.01163 1.78458 7.23515 2.1918 7.23515 2.76502C7.23515 3.2382 7.28184 5.65243 7.19496 5.92464C6.96881 6.63316 6.03375 5.53873 5.85985 5.33791C5.80157 5.27063 5.77622 5.22934 5.72768 5.16368L4.79277 3.72034C4.27601 2.8417 4.09345 2.33694 3.73003 1.4658C3.6668 1.31419 3.61332 1.13453 3.5317 0.988063C3.34543 0.653414 3.12654 0.533099 2.60839 0.533099C2.19009 0.533099 0.679676 0.480654 0.380253 0.61419C0.246231 0.673981 0.119629 0.797234 0.119629 0.966174H0.119783Z" fill="#82A6BF"/>
</svg>
