<svg width="44" height="43" viewBox="0 0 44 43" fill="none" xmlns="http://www.w3.org/2000/svg">
<g id="&#208;&#154;&#208;&#189;&#208;&#190;&#208;&#191;&#208;&#186;&#208;&#176; &#208;&#178;&#208;&#186;">
<path id="Vector" fill-rule="evenodd" clip-rule="evenodd" d="M6.00026 15.7697C6.00026 16.5613 6.14077 16.775 6.34677 17.4389C6.49889 17.929 6.67848 18.3284 6.88131 18.78C7.08044 19.2235 7.27086 19.6494 7.4972 20.0485C7.60601 20.2405 7.70109 20.4742 7.82178 20.6679C8.86552 22.3406 9.23235 23.014 10.4676 24.6693C11.2216 25.6795 11.4537 25.9005 12.2027 26.7564C13.036 27.7086 14.296 28.6599 15.4264 29.3328C17.4877 30.5602 20.3632 31.4275 22.882 31.0067C24.7318 30.6975 23.6101 29.0346 23.9796 26.8524C24.0456 26.4626 24.2624 26.3057 24.7447 26.3057C25.7081 26.3057 27.1771 27.3706 27.7837 27.9237C28.075 28.1893 28.3489 28.3237 28.612 28.628C28.8629 28.9184 29.1156 29.1148 29.4014 29.3672C30.2681 30.1326 30.7882 31.1192 32.3503 31.1192H35.2848C36.2466 31.1192 36.6145 30.8227 36.6621 30.41V30.2095C36.5979 29.5776 35.9741 28.7669 35.5756 28.2924C35.3371 28.0084 35.1419 27.7933 34.8841 27.5195C34.7325 27.3584 34.6802 27.3008 34.5207 27.1487L31.7962 24.5544C30.6133 23.4982 31.187 23.4062 32.4581 21.6958C32.9221 21.0712 33.3529 20.4952 33.8238 19.8669C34.6657 18.7435 35.0262 18.089 35.6638 16.9639C36.1825 16.0483 36.4429 15.0744 34.8057 15.0744H31.7513C30.7335 15.0744 30.3397 15.4525 30.0231 16.1516C29.717 16.8271 28.7039 18.5189 28.304 19.1091C27.7367 19.9464 25.7137 22.8296 24.5049 22.8296C23.7762 22.8296 23.9659 21.7731 23.9659 20.9042C23.9659 20.0245 24.0179 16.9127 23.9627 16.3075C23.8861 15.4659 23.8161 15.0746 22.7682 15.0746H17.8574C17.0921 15.0746 16.4027 15.573 17.2067 16.458C17.775 17.0837 18.1569 17.7375 18.1569 18.6579C18.1569 19.4176 18.2367 23.2937 18.0883 23.7308C17.7019 24.8684 16.1043 23.1112 15.8072 22.7888C15.7076 22.6807 15.6643 22.6145 15.5814 22.509L13.9841 20.1917C13.1012 18.781 12.7893 17.9706 12.1684 16.5719C12.0604 16.3285 11.969 16.04 11.8295 15.8049C11.5113 15.2676 11.1373 15.0744 10.2521 15.0744C9.53739 15.0744 6.95684 14.9902 6.44528 15.2046C6.2163 15.3006 6 15.4985 6 15.7697H6.00026Z" fill="#82A6BF"/>
<rect id="Rectangle 116" x="0.5" y="0.5" width="43" height="42" rx="21" stroke="#82A6BF"/>
</g>
</svg>
