<svg width="27" height="14" viewBox="0 0 27 14" fill="none" xmlns="http://www.w3.org/2000/svg">
<g id="Vector">
<path fill-rule="evenodd" clip-rule="evenodd" d="M26.4077 13.1454L26.4059 11.4929C23.0345 11.4929 19.6783 11.4929 16.3222 11.4929C14.7724 11.4929 13.0772 11.6088 11.7615 11.0037C10.7147 10.5223 9.77777 9.56082 9.3705 8.35595C8.35828 5.36142 10.4701 2.80277 12.9435 2.37066C15.5732 1.91128 17.9995 3.70137 18.3635 6.22806C18.3886 6.40227 18.379 6.64249 18.4298 6.79669C18.6347 6.87129 19.766 6.81736 20.0874 6.81736C20.1589 5.64473 19.5843 4.23609 18.9487 3.3041C17.9165 1.79069 15.9082 0.635482 13.7526 0.642334C9.19875 0.656796 6.11652 5.27265 8.00294 9.44944C8.96831 11.5869 11.1169 13.0436 13.7857 13.1216C15.8539 13.1821 17.9814 13.1454 20.0628 13.1454C22.1778 13.1454 24.2928 13.1454 26.4077 13.1454Z" fill="#82A6BF"/>
<path fill-rule="evenodd" clip-rule="evenodd" d="M26.4075 10.4827L26.4067 8.88643H17.2003C16.1916 8.88643 15.1088 8.92368 14.1093 8.88379C13.0785 8.84265 12.4455 8.53954 12.0518 7.89377C11.1033 6.33787 12.665 4.37001 14.485 5.04394C14.9068 5.2001 15.1402 5.41667 15.3592 5.68979C15.6378 6.03705 15.6764 6.29947 15.7771 6.81755H17.367C17.4542 5.8316 16.7416 4.60224 15.9383 4.02805C15.0252 3.37533 13.8519 3.07938 12.5496 3.52143C10.3263 4.27606 9.41811 6.98991 10.8246 8.94328C11.5049 9.88804 12.3987 10.2921 13.5821 10.4321C14.3213 10.5196 16.9016 10.4827 17.8184 10.4827C20.6814 10.4827 23.5445 10.4827 26.4075 10.4827Z" fill="#82A6BF"/>
<path fill-rule="evenodd" clip-rule="evenodd" d="M2.24827 2.29128L2.36789 2.30363L4.71 2.30158L4.71867 13.017L4.7232 13.1308L6.39927 13.1379L6.41111 13.0172L6.40917 0.633301L2.24839 0.633768L2.24827 2.29128Z" fill="#82A6BF"/>
<path fill-rule="evenodd" clip-rule="evenodd" d="M0.402907 4.73105L2.24827 4.73211L2.25389 13.1367L3.87251 13.1376L3.87273 3.13543L0.398193 3.15011L0.402907 4.73105Z" fill="#82A6BF"/>
</g>
</svg>
