<svg width="70" height="70" viewBox="0 0 70 70" fill="none" xmlns="http://www.w3.org/2000/svg">
<g id="&#208;&#152;&#208;&#186;&#208;&#190;&#208;&#189;&#208;&#186;&#208;&#176; 1">
<g id="Vector">
<path fill-rule="evenodd" clip-rule="evenodd" d="M9.33196 63.5913L6.58317 60.7709L18.4574 48.9635L21.2111 51.6455L9.33196 63.5913ZM44.1706 0.752686H45.6666C50.3606 0.752686 57.3727 3.91859 60.733 7.15808L65.0124 12.0042C65.8958 13.1936 66.5152 14.5454 67.1837 15.8718C69.0525 19.5781 69.5534 23.4106 69.5534 27.8615C69.5534 31.0064 68.3293 35.4183 67.0034 38.0609C64.1625 43.7246 61.137 46.4866 56.1608 49.6296C55.4649 50.0691 54.8398 50.2582 54.0737 50.6295C47.7283 53.7028 38.8265 53.7467 32.425 50.496L29.6621 49.0322L9.29688 69.3296L2.9558 62.9218C2.50604 62.472 1.24591 61.3747 0.97644 60.7924V60.6744L21.1063 40.4769C20.8704 40.0315 20.5971 39.5686 20.3247 39.111C18.3507 35.7974 17.2143 30.5908 17.2143 26.52C17.2143 21.6793 18.6509 17.2635 21.0644 13.1922C23.4019 9.24903 27.3343 5.53688 31.3944 3.52633C36.6805 0.909105 39.0711 0.759995 44.1686 0.753173L44.1706 0.752686ZM23.6251 43.7982C23.9745 44.304 24.4739 44.8498 24.8984 45.2742C25.3228 45.6986 25.8681 46.1981 26.3417 46.5148L24.0929 48.829L21.4089 46.0797L23.6251 43.7982ZM44.5926 48.7963C41.4286 48.7963 40.7591 48.8392 37.6672 48.0727C36.2687 47.7257 34.9803 47.2131 33.8567 46.6493C32.5059 45.972 30.299 44.7012 29.1914 43.6652C26.6053 41.2448 26.5668 41.2195 24.4622 38.0609C22.919 35.7448 21.3758 30.967 21.3758 28.13C21.3758 24.4656 21.426 22.4506 22.7738 18.9261C24.2483 15.0707 26.1658 12.6196 29.0564 10.0443C29.2947 9.83232 29.3434 9.7446 29.6168 9.53117C37.7759 3.15599 48.5835 3.07607 56.785 9.2271C58.2157 10.3001 58.7361 10.9214 59.9943 12.1913C62.1812 14.3977 64.1245 18.7161 64.8589 21.5516C66.0498 26.1487 65.4889 30.9509 63.7454 35.3399C61.5877 40.7712 56.7694 45.2396 51.3425 47.3613C49.7335 47.9903 46.7308 48.7973 44.5921 48.7973L44.5926 48.7963Z" fill="#0293DC"/>
<path fill-rule="evenodd" clip-rule="evenodd" d="M45.3985 36.8524H49.4244V12.6966H45.3985V36.8524Z" fill="#0293DC"/>
<path fill-rule="evenodd" clip-rule="evenodd" d="M37.3466 36.8525H41.3726V20.7486H37.3466V36.8525Z" fill="#0293DC"/>
<path fill-rule="evenodd" clip-rule="evenodd" d="M53.4504 36.8525H57.4764V20.7486H53.4504V36.8525Z" fill="#0293DC"/>
<path fill-rule="evenodd" clip-rule="evenodd" d="M29.2947 36.8526H33.0522C33.3616 36.8526 33.4547 36.7591 33.4547 36.4501V28.8007H29.2947V36.8526Z" fill="#0293DC"/>
</g>
</g>
</svg>
