<svg width="48" height="47" viewBox="0 0 48 47" fill="none" xmlns="http://www.w3.org/2000/svg">
<path fill-rule="evenodd" clip-rule="evenodd" d="M6.1442 42.6682L4.27774 40.7531L12.3405 32.7357L14.2103 34.5568L6.1442 42.6682ZM29.8001 0H30.8158C34.0032 0 38.7644 2.14969 41.0462 4.34934L43.9519 7.63989C44.5518 8.44755 44.9723 9.3654 45.4263 10.266C46.6952 12.7827 47.0353 15.385 47.0353 18.4072C47.0353 20.5427 46.2041 23.5384 45.3038 25.3327C43.3748 29.1785 41.3204 31.0539 37.9416 33.188C37.4691 33.4865 37.0446 33.6148 36.5244 33.867C32.2158 35.9538 26.1714 35.9836 21.8247 33.7763L19.9486 32.7824L6.12038 46.5646L1.81471 42.2136C1.50932 41.9082 0.653677 41.1631 0.470703 40.7677V40.6876L14.1391 26.9732C13.979 26.6708 13.7934 26.3565 13.6084 26.0458C12.268 23.7958 11.4964 20.2604 11.4964 17.4963C11.4964 14.2094 12.4718 11.211 14.1107 8.44656C15.6979 5.76912 18.368 3.24852 21.1249 1.88334C24.7142 0.106211 26.3375 0.00496311 29.7987 0.000330874L29.8001 0ZM15.8494 29.2284C16.0866 29.5719 16.4258 29.9425 16.714 30.2307C17.0022 30.5189 17.3724 30.858 17.694 31.0731L16.167 32.6444L14.3446 30.7776L15.8494 29.2284ZM30.0866 32.6222C27.9382 32.6222 27.4836 32.6513 25.3842 32.1309C24.4346 31.8953 23.5598 31.5472 22.7968 31.1644C21.8796 30.7045 20.3811 29.8416 19.629 29.1381C17.873 27.4947 17.8469 27.4775 16.4179 25.3327C15.37 23.7601 14.3221 20.5159 14.3221 18.5895C14.3221 16.1013 14.3562 14.7332 15.2714 12.34C16.2726 9.72208 17.5746 8.05778 19.5373 6.30911C19.6991 6.16518 19.7322 6.10562 19.9178 5.9607C25.458 1.63187 32.7965 1.57761 38.3654 5.75423C39.3369 6.48282 39.6902 6.90469 40.5445 7.76694C42.0295 9.26514 43.349 12.1973 43.8477 14.1227C44.6563 17.2442 44.2755 20.5049 43.0916 23.4851C41.6265 27.173 38.3548 30.2072 34.6699 31.6478C33.5773 32.075 31.5385 32.6229 30.0863 32.6229L30.0866 32.6222Z" fill="#0293DC"/>
<path fill-rule="evenodd" clip-rule="evenodd" d="M30.6338 24.5121H33.3675V8.11003H30.6338V24.5121Z" fill="#0293DC"/>
<path fill-rule="evenodd" clip-rule="evenodd" d="M25.1665 24.5122H27.9002V13.5775H25.1665V24.5122Z" fill="#0293DC"/>
<path fill-rule="evenodd" clip-rule="evenodd" d="M36.1012 24.5122H38.8349V13.5775H36.1012V24.5122Z" fill="#0293DC"/>
<path fill-rule="evenodd" clip-rule="evenodd" d="M19.6991 24.5123H22.2505C22.4606 24.5123 22.5238 24.4488 22.5238 24.239V19.0449H19.6991V24.5123Z" fill="#0293DC"/>
</svg>
