<svg width="33" height="33" viewBox="0 0 33 33" fill="none" xmlns="http://www.w3.org/2000/svg">
<path fill-rule="evenodd" clip-rule="evenodd" d="M20.365 6.70658L21.4828 11.5176L26.2939 12.6354C26.7322 12.6354 30.1058 8.80785 30.9341 8.25305C30.9341 9.98432 30.9966 10.4444 30.5648 11.7503C29.8173 14.0103 27.8314 15.7691 25.4963 16.3486C22.591 17.0696 21.8943 16.1151 20.8805 16.1151C20.3117 16.1151 17.1183 19.5544 16.5302 20.1425L8.02344 28.6491C7.31669 29.3558 6.64997 30.1809 5.80059 30.6796C4.8368 31.2451 3.44832 30.9838 2.73192 30.2674C2.0652 29.6007 1.73202 28.2709 2.27183 27.28C2.85203 26.2147 11.3273 17.9983 12.7923 16.5337C13.3925 15.9335 16.8848 12.6908 16.8848 12.1196C16.8848 10.8655 15.5782 10.0354 17.1229 6.17108C17.4847 5.26629 17.8515 4.99318 18.3012 4.38511C18.9286 3.53716 20.3689 2.73998 21.3445 2.4018C22.9164 1.85664 23.5019 2.06649 24.747 2.06649C24.1926 2.89477 20.365 6.26831 20.365 6.70658ZM22.9246 0.00453762C24.362 0.00453762 27.7117 -0.18028 27.7117 1.8091C27.7117 2.4136 22.556 6.74769 22.556 7.35112L23.0715 9.92892L25.6493 10.4444C26.0436 10.4444 26.8126 9.4742 27.099 9.1875L29.8058 6.48101C30.085 6.20182 30.8025 5.28917 31.1915 5.28917C33.1709 5.28917 32.9961 8.61339 32.9961 10.0379C32.4462 15.956 27.0128 19.6452 21.2669 18.3068C20.3861 18.8967 9.4684 30.3114 7.69884 31.8053C6.85803 32.5149 5.87959 32.9153 4.89829 33H4.10967C3.09155 32.9106 2.10917 32.4741 1.3177 31.6823C0.526221 30.8909 0.0893718 29.9085 0 28.8904V28.1018C0.0847244 27.1202 0.484752 26.1417 1.19472 25.3013C2.68866 23.5318 14.1039 12.614 14.6934 11.7335C14.3599 10.3018 14.4357 10.2389 14.4357 8.76889C14.4357 4.17348 18.5368 0.459968 22.9246 0.00453762Z" fill="#0293DC"/>
</svg>
