<svg width="16" height="17" viewBox="0 0 16 17" fill="none" xmlns="http://www.w3.org/2000/svg">
<path d="M7.73334 10.2365C7.60515 10.2365 7.48221 10.2874 7.39157 10.3781C7.30092 10.4687 7.25 10.5917 7.25 10.7198C7.25 10.848 7.30092 10.971 7.39157 11.0616C7.48221 11.1523 7.60515 11.2032 7.73334 11.2032C7.86152 11.2032 7.98446 11.1523 8.0751 11.0616C8.16575 10.971 8.21667 10.848 8.21667 10.7198C8.21667 10.5917 8.16575 10.4687 8.0751 10.3781C7.98446 10.2874 7.86152 10.2365 7.73334 10.2365ZM7.73334 9.17317C7.83589 9.17317 7.93424 9.13244 8.00675 9.05992C8.07926 8.98741 8.12 8.88906 8.12 8.78651V5.69317C8.12 5.59062 8.07926 5.49227 8.00675 5.41976C7.93424 5.34724 7.83589 5.30651 7.73334 5.30651C7.63078 5.30651 7.53243 5.34724 7.45992 5.41976C7.38741 5.49227 7.34667 5.59062 7.34667 5.69317V8.78651C7.34667 8.88906 7.38741 8.98741 7.45992 9.05992C7.53243 9.13244 7.63078 9.17317 7.73334 9.17317ZM7.73334 0.666504C3.46221 0.666504 0 4.12872 0 8.39984C0 12.671 3.46221 16.1332 7.73334 16.1332C12.0021 16.1285 15.462 12.6686 15.4667 8.39984C15.4667 4.12872 12.0045 0.666504 7.73334 0.666504ZM7.73334 15.3598C6.81933 15.3598 5.91428 15.1798 5.06986 14.83C4.22543 14.4803 3.45817 13.9676 2.81187 13.3213C2.16557 12.675 1.6529 11.9077 1.30313 11.0633C0.953359 10.2189 0.773333 9.31384 0.773333 8.39984C0.773333 7.48584 0.953359 6.58079 1.30313 5.73636C1.6529 4.89194 2.16557 4.12467 2.81187 3.47837C3.45817 2.83208 4.22543 2.31941 5.06986 1.96964C5.91428 1.61986 6.81933 1.43984 7.73334 1.43984C9.57861 1.44188 11.3477 2.17583 12.6525 3.48064C13.9574 4.78545 14.6913 6.55456 14.6933 8.39984C14.6933 10.2457 13.9601 12.0161 12.6548 13.3213C11.3495 14.6266 9.57924 15.3598 7.73334 15.3598Z" fill="#FD5B4B"/>
</svg>
