<svg width="29" height="29" viewBox="0 0 29 29" fill="none" xmlns="http://www.w3.org/2000/svg">
<g id="&#208;&#146;&#208;&#190;&#209;&#129;&#208;&#186;&#208;&#187;&#208;&#184;&#209;&#134;&#208;&#176;&#209;&#130;&#208;&#181;&#208;&#187;&#209;&#140;&#208;&#189;&#209;&#139;&#208;&#185; &#208;&#183;&#208;&#189;&#208;&#176;&#208;&#186;">
<path id="Vector" d="M14.5 17.9438C14.2596 17.9438 14.0291 18.0392 13.8592 18.2092C13.6892 18.3791 13.5938 18.6096 13.5938 18.85C13.5938 19.0904 13.6892 19.3209 13.8592 19.4908C14.0291 19.6608 14.2596 19.7563 14.5 19.7563C14.7404 19.7563 14.9709 19.6608 15.1408 19.4908C15.3108 19.3209 15.4063 19.0904 15.4063 18.85C15.4063 18.6096 15.3108 18.3791 15.1408 18.2092C14.9709 18.0392 14.7404 17.9438 14.5 17.9438ZM14.5 15.95C14.6923 15.95 14.8767 15.8736 15.0127 15.7377C15.1486 15.6017 15.225 15.4173 15.225 15.225V9.425C15.225 9.23272 15.1486 9.04831 15.0127 8.91235C14.8767 8.77638 14.6923 8.7 14.5 8.7C14.3077 8.7 14.1233 8.77638 13.9873 8.91235C13.8514 9.04831 13.775 9.23272 13.775 9.425V15.225C13.775 15.4173 13.8514 15.6017 13.9873 15.7377C14.1233 15.8736 14.3077 15.95 14.5 15.95ZM14.5 0C6.49165 0 0 6.49165 0 14.5C0 22.5084 6.49165 29 14.5 29C22.504 28.9913 28.9913 22.504 29 14.5C29 6.49165 22.5084 0 14.5 0ZM14.5 27.55C12.7862 27.55 11.0893 27.2125 9.50598 26.5566C7.92268 25.9008 6.48406 24.9395 5.27226 23.7277C4.06045 22.5159 3.0992 21.0773 2.44337 19.494C1.78755 17.9107 1.45 16.2138 1.45 14.5C1.45 12.7862 1.78755 11.0893 2.44337 9.50598C3.0992 7.92268 4.06045 6.48406 5.27226 5.27226C6.48406 4.06045 7.92268 3.0992 9.50598 2.44337C11.0893 1.78755 12.7862 1.45 14.5 1.45C17.9599 1.45384 21.277 2.82998 23.7235 5.2765C26.17 7.72301 27.5462 11.0401 27.55 14.5C27.55 17.9611 26.1751 21.2804 23.7277 23.7277C21.2804 26.1751 17.9611 27.55 14.5 27.55Z" fill="#FD5B4B"/>
</g>
</svg>
