<svg width="17" height="17" viewBox="0 0 17 17" fill="none" xmlns="http://www.w3.org/2000/svg">
<path d="M8.73334 0.616508H8.73339C13.0298 0.621178 16.512 4.10342 16.5167 8.39979V8.39984C16.5167 12.6986 13.0321 16.1832 8.73334 16.1832C4.4346 16.1832 0.95 12.6986 0.95 8.39984C0.95 4.10111 4.4346 0.616508 8.73334 0.616508ZM8.73334 6.61318C8.59189 6.61318 8.45623 6.55699 8.35621 6.45697C8.25619 6.35695 8.2 6.22129 8.2 6.07984C8.2 5.93839 8.25619 5.80274 8.35621 5.70272C8.45623 5.6027 8.59189 5.54651 8.73334 5.54651C8.87478 5.54651 9.01044 5.6027 9.11046 5.70272C9.21048 5.80274 9.26667 5.93839 9.26667 6.07984C9.26667 6.22129 9.21048 6.35695 9.11046 6.45697C9.01044 6.55699 8.87478 6.61318 8.73334 6.61318ZM8.73334 7.57651C8.84915 7.57651 8.96021 7.62251 9.04211 7.70441C9.124 7.7863 9.17 7.89736 9.17 8.01318V11.1065C9.17 11.2223 9.124 11.3334 9.04211 11.4153C8.96022 11.4972 8.84915 11.5432 8.73334 11.5432C8.61752 11.5432 8.50646 11.4972 8.42457 11.4153C8.34267 11.3334 8.29667 11.2223 8.29667 11.1065V8.01318C8.29667 7.89736 8.34267 7.7863 8.42457 7.70441C8.50646 7.62251 8.61752 7.57651 8.73334 7.57651ZM8.73334 1.48984C7.8259 1.48984 6.92735 1.66857 6.08899 2.01583C5.25063 2.36309 4.48888 2.87208 3.84723 3.51373C3.20557 4.15539 2.69659 4.91714 2.34933 5.7555C2.00207 6.59386 1.82333 7.49241 1.82333 8.39984C1.82333 9.30728 2.00207 10.2058 2.34933 11.0442C2.69659 11.8825 3.20557 12.6443 3.84723 13.286C4.48888 13.9276 5.25063 14.4366 6.08899 14.7839C6.92735 15.1311 7.8259 15.3098 8.73334 15.3098C10.5654 15.3078 12.3218 14.5791 13.6172 13.2837C14.9126 11.9882 15.6413 10.2318 15.6433 8.39979C15.6433 6.56716 14.9153 4.8096 13.6194 3.51373C12.3236 2.21786 10.566 1.48984 8.73334 1.48984Z" fill="#49B1E6" stroke="#49B1E6" stroke-width="0.1"/>
</svg>
