<svg width="63" height="62" viewBox="0 0 63 62" fill="none" xmlns="http://www.w3.org/2000/svg">
<g id="&#208;&#152;&#208;&#186;&#208;&#190;&#208;&#189;&#208;&#186;&#208;&#176; 2">
<g id="Vector">
<path fill-rule="evenodd" clip-rule="evenodd" d="M4.5798 54.12V42.3723H58.2824V54.12C58.2824 56.3513 56.9178 57.7159 54.6865 57.7159H8.17631C5.94505 57.7159 4.5798 56.3513 4.5798 54.12ZM4.5798 23.1935H58.2824V38.5371H4.5798V23.1935ZM4.5798 7.61049C4.5798 5.37923 5.94441 4.01461 8.17567 4.01461H54.6859C56.9171 4.01461 58.2817 5.37923 58.2817 7.61049V19.3582H4.57916L4.5798 7.61049ZM0.743896 6.77136V54.9598C0.743896 58.2792 4.01782 61.5525 7.33655 61.5525H55.6447C58.0347 61.5525 60.3312 59.6822 61.4392 57.6372C61.7022 57.1514 62.1176 55.7759 62.1176 55.0795V6.77136C62.1176 3.45199 58.8437 0.178711 55.525 0.178711H7.33655C4.01462 0.178711 0.743896 3.44943 0.743896 6.77136Z" fill="#0293DC"/>
<path fill-rule="evenodd" clip-rule="evenodd" d="M39.1029 30.6252C39.1029 31.8202 39.4165 32.7252 40.5872 33.2168C42.67 34.0911 44.2574 32.3873 44.2574 30.8652C44.2574 27.428 39.1029 27.5394 39.1029 30.6252Z" fill="#0293DC"/>
<path fill-rule="evenodd" clip-rule="evenodd" d="M49.292 30.8655C49.292 32.8209 51.6827 34.4249 53.631 32.8068C55.2574 31.4563 54.394 28.1555 51.8177 28.2458C50.5049 28.2918 49.292 29.4555 49.292 30.8655Z" fill="#0293DC"/>
<path fill-rule="evenodd" clip-rule="evenodd" d="M31.1911 53.8808C32.3861 53.8808 33.2911 53.5671 33.7827 52.3964C34.2614 51.2559 34.0822 50.3809 33.2636 49.5302C31.6052 47.8059 29.0219 49.0553 28.819 51.1515C28.6891 52.4976 29.8796 53.8808 31.1911 53.8808Z" fill="#0293DC"/>
<path fill-rule="evenodd" clip-rule="evenodd" d="M31.191 28.3483C30.7974 28.4431 30.1375 28.3349 29.4232 29.2182C29.0763 29.6477 28.7415 30.4503 28.851 31.1589C29.4084 34.765 34.4957 33.7172 34.0092 30.5726C33.7846 29.1177 32.4628 28.0424 31.191 28.3483Z" fill="#0293DC"/>
<path fill-rule="evenodd" clip-rule="evenodd" d="M31.1911 15.5219C32.3861 15.5219 33.2912 15.2076 33.7827 14.0376C34.6571 11.9548 32.9532 10.3675 31.4311 10.3675C30.0044 10.3675 28.9407 11.5413 28.8197 12.7933C28.6897 14.1394 29.8796 15.5219 31.1911 15.5219Z" fill="#0293DC"/>
<path fill-rule="evenodd" clip-rule="evenodd" d="M49.292 12.8846C49.292 16.309 54.4464 16.556 54.4464 12.7649C54.4464 9.55438 49.292 9.68623 49.292 12.8846Z" fill="#0293DC"/>
<path fill-rule="evenodd" clip-rule="evenodd" d="M49.292 51.2433C49.292 54.6676 54.4464 54.9147 54.4464 51.1236C54.4464 47.9131 49.292 48.0449 49.292 51.2433Z" fill="#0293DC"/>
<path fill-rule="evenodd" clip-rule="evenodd" d="M39.1029 12.7642C39.1029 16.5707 44.2574 16.2891 44.2574 12.8839C44.2574 9.6849 39.1029 9.55369 39.1029 12.7642Z" fill="#0293DC"/>
<path fill-rule="evenodd" clip-rule="evenodd" d="M39.1029 51.1234C39.1029 54.9298 44.2574 54.6482 44.2574 51.2431C44.2574 48.044 39.1029 47.9128 39.1029 51.1234Z" fill="#0293DC"/>
</g>
</g>
</svg>
