<svg width="36" height="36" viewBox="0 0 36 36" fill="none" xmlns="http://www.w3.org/2000/svg">
<path fill-rule="evenodd" clip-rule="evenodd" d="M2.24218 31.5301V24.6633H33.6328V31.5301C33.6328 32.8344 32.8351 33.632 31.5309 33.632H4.34444C3.04021 33.632 2.24218 32.8344 2.24218 31.5301ZM2.24218 13.4527H33.6328V22.4215H2.24218V13.4527ZM2.24218 4.34407C2.24218 3.03984 3.03984 2.24218 4.34407 2.24218H31.5305C32.8347 2.24218 33.6324 3.03984 33.6324 4.34407V11.2109H2.24181L2.24218 4.34407ZM0 3.85358V32.021C0 33.9612 1.91369 35.8746 3.85358 35.8746H32.091C33.488 35.8746 34.8304 34.7813 35.478 33.586C35.6318 33.302 35.8746 32.498 35.8746 32.091V3.85358C35.8746 1.91332 33.9609 0 32.021 0H3.85358C1.91182 0 0 1.91182 0 3.85358Z" fill="#0293DC"/>
<path fill-rule="evenodd" clip-rule="evenodd" d="M22.4219 17.7967C22.4219 18.4953 22.6052 19.0243 23.2895 19.3116C24.5069 19.8227 25.4348 18.8267 25.4348 17.937C25.4348 15.9279 22.4219 15.993 22.4219 17.7967Z" fill="#0293DC"/>
<path fill-rule="evenodd" clip-rule="evenodd" d="M28.3776 17.9373C28.3776 19.0802 29.775 20.0178 30.9139 19.072C31.8646 18.2826 31.3599 16.3532 29.854 16.4059C29.0866 16.4329 28.3776 17.113 28.3776 17.9373Z" fill="#0293DC"/>
<path fill-rule="evenodd" clip-rule="evenodd" d="M17.7972 31.3903C18.4957 31.3903 19.0247 31.2069 19.312 30.5226C19.5919 29.8559 19.4871 29.3445 19.0086 28.8473C18.0392 27.8393 16.5292 28.5697 16.4106 29.7949C16.3347 30.5817 17.0306 31.3903 17.7972 31.3903Z" fill="#0293DC"/>
<path fill-rule="evenodd" clip-rule="evenodd" d="M17.7971 16.4659C17.5671 16.5213 17.1813 16.458 16.7638 16.9743C16.561 17.2254 16.3653 17.6945 16.4293 18.1087C16.7552 20.2166 19.7288 19.6041 19.4445 17.766C19.3131 16.9156 18.5406 16.287 17.7971 16.4659Z" fill="#0293DC"/>
<path fill-rule="evenodd" clip-rule="evenodd" d="M17.7972 8.96849C18.4957 8.96849 19.0247 8.78479 19.3121 8.10087C19.8231 6.88344 18.8272 5.95559 17.9375 5.95559C17.1036 5.95559 16.4817 6.64175 16.411 7.37356C16.3351 8.16036 17.0306 8.96849 17.7972 8.96849Z" fill="#0293DC"/>
<path fill-rule="evenodd" clip-rule="evenodd" d="M28.3776 7.42694C28.3776 9.42856 31.3905 9.57297 31.3905 7.35698C31.3905 5.48033 28.3776 5.5574 28.3776 7.42694Z" fill="#0293DC"/>
<path fill-rule="evenodd" clip-rule="evenodd" d="M28.3776 29.8486C28.3776 31.8502 31.3905 31.9946 31.3905 29.7786C31.3905 27.902 28.3776 27.979 28.3776 29.8486Z" fill="#0293DC"/>
<path fill-rule="evenodd" clip-rule="evenodd" d="M22.4219 7.35657C22.4219 9.58155 25.4348 9.41693 25.4348 7.42654C25.4348 5.55662 22.4219 5.47992 22.4219 7.35657Z" fill="#0293DC"/>
<path fill-rule="evenodd" clip-rule="evenodd" d="M22.4219 29.7785C22.4219 32.0035 25.4348 31.8389 25.4348 29.8485C25.4348 27.9785 22.4219 27.9018 22.4219 29.7785Z" fill="#0293DC"/>
</svg>
