<svg width="17" height="13" viewBox="0 0 17 13" fill="none" xmlns="http://www.w3.org/2000/svg">
<path id="Vector" fill-rule="evenodd" clip-rule="evenodd" d="M2.2788 12.9835C2.54502 9.78573 1.47417 5.76411 3.98391 5.51263C5.74293 5.33605 5.61182 6.98303 5.61182 8.46099L5.62446 12.9979L7.89328 12.965C7.97314 11.498 8.05966 6.12072 7.54187 5.10655C7.10195 4.24355 6.22344 3.63272 4.89969 3.65745C3.16663 3.69043 2.60558 4.89355 2.29611 4.94646L2.30276 0.00343552L0 0L0.025956 13L2.27814 12.9842L2.2788 12.9835ZM11.3341 12.9801C11.573 9.80497 10.5468 5.75037 13.0439 5.51126C14.7869 5.34429 14.6658 6.99403 14.6658 8.46031L14.6804 12.9952L16.9326 12.9993C17.0677 11.979 16.9579 10.0496 16.9579 8.93235C16.9579 7.7519 17.085 6.17019 16.6178 5.16771C15.8977 3.62104 13.8971 3.27405 12.4988 4.04292C11.7128 4.47511 11.7627 4.72384 11.3474 4.95608L11.3241 0.00893235L9.05997 0.0350423L9.06795 12.9938L11.3354 12.9808L11.3341 12.9801Z" fill="#82A6BF"/>
</svg>
