<svg width="18" height="14" viewBox="0 0 18 14" fill="none" xmlns="http://www.w3.org/2000/svg">
<path id="Vector" fill-rule="evenodd" clip-rule="evenodd" d="M2.88051 13.1405C3.13696 10.0601 2.10539 6.18596 4.52307 5.94371C6.21756 5.7736 6.09126 7.36017 6.09126 8.78391L6.10344 13.1544L8.28903 13.1227C8.36596 11.7095 8.44931 6.52949 7.95052 5.55253C7.52673 4.72118 6.68045 4.13276 5.40525 4.15658C3.73577 4.18836 3.1953 5.34734 2.89718 5.3983L2.90359 0.63661L0.685303 0.633301L0.710307 13.1564L2.87987 13.1412L2.88051 13.1405ZM11.6036 13.1372C11.8338 10.0786 10.8452 6.17273 13.2507 5.94239C14.9298 5.78154 14.8131 7.37076 14.8131 8.78325L14.8272 13.1518L16.9968 13.1558C17.1269 12.1728 17.0211 10.3142 17.0211 9.23798C17.0211 8.10084 17.1436 6.57715 16.6935 5.61144C15.9998 4.1215 14.0726 3.78725 12.7256 4.52791C11.9684 4.94424 12.0165 5.18385 11.6165 5.40757L11.594 0.641905L9.41292 0.667058L9.42061 13.1505L11.6049 13.1379L11.6036 13.1372Z" fill="#82A6BF"/>
</svg>
