<svg width="59" height="59" viewBox="0 0 59 59" fill="none" xmlns="http://www.w3.org/2000/svg">
<g id="&#208;&#152;&#208;&#186;&#208;&#190;&#208;&#189;&#208;&#186;&#208;&#176; 3">
<g id="&#208;&#152;&#208;&#186;&#208;&#190;&#208;&#189;&#208;&#186;&#208;&#176; 3_2">
<path fill-rule="evenodd" clip-rule="evenodd" d="M8.98844 13.1365L12.8506 9.16232C18.6105 12.4053 16.6272 13.7081 21.2774 11.3664C22.1462 10.9292 22.5946 10.7779 23.5979 10.4601C24.6236 10.1355 25.1822 10.0655 25.5631 9.1986C25.7707 8.72575 26.5044 4.22184 26.5044 3.45628H32.2661C32.2892 4.50454 32.6376 5.88868 32.8252 7.04577C33.0729 8.57627 32.991 9.4444 34.2106 10.0392C35.2426 10.5427 36.3197 10.6772 37.4173 11.2113C40.9387 12.9238 40.4658 13.114 44.6107 10.0392C45.3225 9.51133 45.1224 9.4444 46.0943 9.21799L49.8377 12.8494C49.3736 14.6563 46.5553 16.9061 46.5553 18.4366L48.9996 24.75C49.6213 25.892 50.6164 25.842 52.053 26.0753C56.4175 26.7833 55.5431 25.4448 55.5431 31.8032C55.5431 32.6095 54.9933 32.4669 54.2434 32.5782C47.4115 33.5927 49.7045 33.3344 47.8637 37.261C47.3384 38.3824 46.5547 39.3431 46.5547 40.5615C46.5547 42.0914 49.373 44.3412 49.7814 46.0924L46.15 49.8358C44.116 49.3135 42.3503 46.5534 40.3326 46.5534L34.0668 49.0452C32.2048 50.248 33.3381 55.5412 31.8051 55.5412C26.0359 55.5412 26.672 55.9296 26.4212 54.2415C25.4036 47.3896 25.6544 49.7076 21.739 47.8619C17.4553 45.8423 19.2328 45.9286 13.1377 50.0103L9.16357 46.1481C12.2389 40.5303 13.8032 42.5574 11.3677 37.7213C10.9311 36.8544 10.7773 36.4035 10.462 35.4009C10.1355 34.3632 10.1224 33.8935 9.14606 33.4901C8.55375 33.2456 4.23309 32.5119 3.45815 32.4944V26.7327C4.62713 26.7327 5.8868 26.3993 7.0808 26.2073C11.0887 25.5618 9.5451 25.1334 11.1375 21.7365C13.1853 17.3683 13.0952 19.2666 8.98969 13.1352L8.98844 13.1365ZM26.273 0H32.2454C33.9748 0.238925 35.1876 0.991975 35.6317 3.08663C36.5042 7.20151 35.6598 6.82249 37.458 7.48297C41.3396 8.90964 39.3944 9.5107 43.3254 6.68113C46.7636 4.2062 48.8232 6.99324 50.5301 8.70011C53.03 11.2001 54.5811 12.5342 51.8548 16.3626C51.3037 17.1363 50.7827 17.8612 50.2423 18.668C50.8134 19.7476 51.5496 21.2737 51.8554 22.5859C54.1827 22.6378 59 23.3033 59 26.5037V32.3774C58.8905 33.1536 58.6766 33.8178 58.2838 34.3151C58.0293 34.6372 58.3445 34.2863 57.9467 34.6697C56.637 35.9325 55.4493 35.8625 53.2577 36.2033C51.3957 36.4929 52.0756 36.2415 50.5226 39.7203C50.0303 40.8223 50.8284 41.2564 52.3182 43.3254C54.7231 46.6666 52.1137 48.7156 50.5301 50.2993C48.4811 52.3483 46.569 54.7125 43.1928 52.2207C40.5947 50.303 40.7166 50.0191 39.4138 50.6877C36.5836 52.1394 36.5767 50.8084 36.1464 53.6623C36.0307 54.4317 35.9037 55.4017 35.6892 56.2011C35.4415 57.123 35.1976 57.4476 34.5571 58.0649L34.0436 58.4734C34.0361 58.4777 33.5933 58.7104 33.5902 58.7117C33.1255 58.9137 33.1029 59 32.4963 59H26.7095C24.4116 58.7817 23.5228 57.8254 22.9486 54.2584C22.3476 50.5213 22.8673 52.464 18.668 50.2423L16.0373 52.2213C12.4579 54.8607 11.0024 52.8324 8.58502 50.4156C7.34537 49.1759 5.76171 48.2378 5.76171 45.8641C5.76171 43.059 9.39999 41.7336 8.47557 39.7197C6.50788 35.4353 8.32546 36.9332 3.05223 35.8981C1.26342 35.5472 0 33.926 0 32.7277V26.8171C0.172626 25.5743 0.60857 24.5823 1.6093 23.9656C4.56896 22.1418 6.50663 24.1989 7.48297 21.5426C7.90578 20.3918 8.25353 19.6225 8.75765 18.6693C8.51185 18.3866 8.27667 18.1195 8.02774 17.7861L6.22267 15.2124C4.28063 11.828 7.24279 9.93539 9.27615 7.89515C11.6316 5.53154 12.8525 4.85542 15.9967 7.05203C16.893 7.67811 17.5741 8.18161 18.4372 8.75953C19.154 8.59253 19.2522 8.45118 19.8964 8.1447C22.756 6.78558 22.2819 8.16409 22.8148 4.84041C23.0806 3.17982 23.6567 0.00187637 26.273 0.00187637V0Z" fill="#0293DC"/>
<path fill-rule="evenodd" clip-rule="evenodd" d="M20.2817 30.6518C20.2817 28.1474 20.0822 27.6327 21.1974 25.3448C22.0774 23.5391 23.3821 22.1687 25.1915 21.2724C28.3207 19.7225 32.3205 19.8864 34.9662 21.9592C40.8461 26.5663 39.5239 34.8949 33.8091 37.7257C26.6426 41.2758 20.2817 35.2089 20.2817 30.6511V30.6518ZM16.8248 28.5778V30.4216C16.8248 36.3835 22.6165 42.1752 28.5784 42.1752H30.4222C40.3151 42.1752 46.7542 28.6484 38.5526 20.4474C30.401 12.2959 16.8248 18.6299 16.8248 28.5778Z" fill="#0293DC"/>
</g>
</g>
</svg>
