<svg width="27" height="21" viewBox="0 0 27 21" fill="none" xmlns="http://www.w3.org/2000/svg">
<g id="&#208;&#147;&#208;&#176;&#208;&#187;&#208;&#190;&#209;&#135;&#208;&#186;&#208;&#176;">
<path id="Vector" d="M8.07925 17.1282L2.21514 10.5309C1.992 10.2795 1.67814 10.1271 1.34261 10.1071C1.00708 10.0872 0.677368 10.2013 0.425999 10.4245C0.174631 10.6476 0.0221993 10.9615 0.0022387 11.297C-0.0177219 11.6325 0.0964229 11.9622 0.319563 12.2136L7.0774 19.8162C7.19212 19.9452 7.33201 20.0495 7.48849 20.1225C7.64497 20.1956 7.81472 20.2359 7.98733 20.241C8.15995 20.246 8.33177 20.2157 8.49226 20.152C8.65275 20.0882 8.79851 19.9924 8.9206 19.8702L26.6599 2.1309C26.8837 1.8907 27.0056 1.57301 26.9998 1.24474C26.994 0.916478 26.861 0.603277 26.6289 0.371124C26.3967 0.13897 26.0835 0.00598924 25.7553 0.000197408C25.427 -0.00559442 25.1093 0.116255 24.8691 0.340074L8.07925 17.1282Z" fill="#49B1E6"/>
</g>
</svg>
