<svg width="36" height="36" viewBox="0 0 36 36" fill="none" xmlns="http://www.w3.org/2000/svg">
<path fill-rule="evenodd" clip-rule="evenodd" d="M6.84481 17.5287C6.84481 17.1254 8.5964 14.5267 9.15742 13.9094C9.26008 13.7964 9.34032 13.7308 9.44661 13.6183C9.58292 13.474 9.60314 13.4073 9.73202 13.2648C10.3279 12.6057 11.5858 11.6386 12.3725 11.152C13.6405 10.3676 15.2758 9.84938 16.7959 9.6848C17.4087 9.61846 18.4052 9.63037 19.0261 9.67949C19.3351 9.70397 19.8071 9.7832 20.0791 9.8365C20.7544 9.96887 21.3459 10.1631 21.9101 10.3721C22.4773 10.5823 22.9884 10.8716 23.4944 11.1594C24.0404 11.4699 24.4304 11.7704 24.8914 12.1375C25.5554 12.6664 25.8543 12.988 26.3993 13.5886C27.1627 14.4299 27.5664 14.9154 28.2007 15.9711C28.3262 16.1803 29.0296 17.3746 29.0296 17.5287C29.0296 17.9319 27.278 20.5307 26.717 21.1479L26.1422 21.7926C25.5915 22.4016 24.1971 23.4984 23.4943 23.8979C22.0439 24.7226 20.7939 25.1901 19.0785 25.3727C18.8909 25.3927 18.7004 25.3688 18.5149 25.384C17.7974 25.4426 18.2449 25.4837 17.4114 25.3895C17.2245 25.3684 17.0339 25.3925 16.848 25.3779C14.6118 25.2014 11.894 23.9575 10.3655 22.377C10.146 22.1501 9.95361 22.0378 9.73186 21.7924L8.6441 20.499C8.2892 20.0547 6.84481 17.8677 6.84481 17.5287ZM4.94822 17.5287C4.94822 18.0511 6.41884 20.4539 6.8933 21.1124L7.80795 22.2894C7.93272 22.4333 8.01912 22.4887 8.14247 22.6515C8.44494 23.0509 8.81468 23.3822 9.18427 23.6989C9.33337 23.8268 9.39133 23.9118 9.54596 24.0332C9.69427 24.1498 9.75634 24.2245 9.92297 24.3519C12.0655 25.9895 14.6043 27.1974 17.4774 27.1974C20.5193 27.1974 22.3043 26.693 24.7011 25.2453C25.985 24.4698 27.0415 23.4123 28.0388 22.3196L30.0401 19.4378C30.1912 19.1772 30.9263 17.7733 30.9263 17.5285C30.9263 17.1501 29.8959 15.3336 29.5356 14.7859C29.3456 14.497 29.1804 14.22 28.9812 13.9448C28.3311 13.0464 27.5282 12.0765 26.6903 11.3583C26.5412 11.2304 26.4832 11.1454 26.3286 11.024C26.1803 10.9074 26.1182 10.8327 25.9516 10.7053C25.7991 10.5889 25.7086 10.5211 25.5567 10.4046C23.6652 8.95515 20.9045 7.85979 18.3971 7.85979C15.3597 7.85979 13.5663 8.36657 11.1734 9.81186C10.59 10.1644 9.32263 11.1599 8.84137 11.6533C7.75614 12.7654 7.2373 13.4186 6.36213 14.751L5.82907 15.614C5.68029 15.8992 4.94822 17.2775 4.94822 17.5287Z" fill="#0293DC"/>
<path fill-rule="evenodd" clip-rule="evenodd" d="M13.6267 17.5289C13.6267 17.2836 13.6989 16.8208 13.745 16.5947C13.9161 15.7559 14.3285 15.0257 14.9053 14.4376C15.4652 13.8668 16.1807 13.4379 16.9736 13.2648C20.1217 12.5777 22.7698 15.3249 22.1296 18.4632C21.9586 19.302 21.5462 20.0322 20.9694 20.6203C20.6096 20.9871 20.2005 21.2937 19.7185 21.513C18.8166 21.9234 17.982 22.0071 17.0211 21.8032C15.0542 21.3861 13.6267 19.5178 13.6267 17.5289ZM11.9025 17.1773C11.9025 18.8176 12.1206 19.7623 13.0052 21.0924C13.927 22.4784 15.8637 23.6817 17.5924 23.6817C19.2012 23.6817 20.1277 23.4592 21.4323 22.5574C22.7917 21.6176 23.9719 19.6429 23.9719 17.8804C23.9719 16.7065 23.921 15.9483 23.3973 14.8916C22.7366 13.5587 21.9003 12.6685 20.5617 11.9814C18.2611 10.8 15.4505 11.362 13.6696 13.1778C12.7279 14.1379 11.9025 15.6797 11.9025 17.1773Z" fill="#0293DC"/>
<path fill-rule="evenodd" clip-rule="evenodd" d="M27.4663 2.14323H33.7724V8.57274H35.8745V0H27.4663V2.14323Z" fill="#0293DC"/>
<path fill-rule="evenodd" clip-rule="evenodd" d="M0 8.57274H2.10209V2.14323H8.40815V0H0V8.57274Z" fill="#0293DC"/>
<path fill-rule="evenodd" clip-rule="evenodd" d="M0.000136518 35.0592H8.40829V32.916H2.10222V26.4865H0.000136518V35.0592Z" fill="#0293DC"/>
<path fill-rule="evenodd" clip-rule="evenodd" d="M33.7725 32.916H27.4664V35.0592H35.8746V26.4865H33.7725V32.916Z" fill="#0293DC"/>
<path fill-rule="evenodd" clip-rule="evenodd" d="M17.0751 17.5874C17.068 17.5407 17.1221 17.3058 17.1413 17.2447C17.4084 16.3943 18.7208 16.5033 18.7855 17.4814C18.8564 18.5531 17.2541 18.7668 17.0751 17.5874ZM15.3509 17.4116C15.3509 18.3169 15.5297 18.7994 16.0834 19.3602C16.3241 19.6041 16.4364 19.7292 16.7667 19.8941C18.0568 20.5381 19.6379 20.0116 20.2572 18.7221C21.1286 16.9075 19.7926 14.8917 18.0522 14.8917C16.5186 14.8917 15.3509 16.0027 15.3509 17.4116Z" fill="#0293DC"/>
</svg>
