<svg width="43" height="40" viewBox="0 0 43 40" fill="none" xmlns="http://www.w3.org/2000/svg">
<g id="&#208;&#152;&#208;&#186;&#208;&#190;&#208;&#189;&#208;&#186;&#208;&#176; 3">
<g id="Vector">
<path fill-rule="evenodd" clip-rule="evenodd" d="M8.75772 19.8941C8.75772 19.4365 10.7846 16.487 11.4338 15.7864C11.5526 15.6581 11.6454 15.5837 11.7684 15.456C11.9262 15.2922 11.9496 15.2166 12.0987 15.0548C12.7883 14.3068 14.2438 13.2092 15.1542 12.6569C16.6214 11.7667 18.5138 11.1785 20.2727 10.9917C20.9819 10.9164 22.135 10.93 22.8534 10.9857C23.2111 11.0135 23.7572 11.1034 24.0719 11.1639C24.8534 11.3141 25.5379 11.5345 26.1907 11.7718C26.847 12.0103 27.4385 12.3387 28.0241 12.6653C28.6559 13.0177 29.1071 13.3587 29.6406 13.7754C30.409 14.3757 30.7548 14.7406 31.3855 15.4224C32.2688 16.3771 32.736 16.9282 33.47 18.1264C33.6152 18.3638 34.4291 19.7192 34.4291 19.8941C34.4291 20.3518 32.4022 23.3012 31.753 24.0018L31.088 24.7334C30.4506 25.4246 28.8372 26.6694 28.0239 27.1229C26.3455 28.0588 24.8991 28.5894 22.9141 28.7967C22.697 28.8193 22.4765 28.7923 22.262 28.8095C21.4317 28.876 21.9494 28.9226 20.985 28.8157C20.7688 28.7917 20.5482 28.8191 20.3331 28.8025C17.7455 28.6022 14.6004 27.1905 12.8318 25.3967C12.5777 25.1391 12.3551 25.0117 12.0985 24.7332L10.8398 23.2652C10.4291 22.761 8.75772 20.2788 8.75772 19.8941ZM6.56306 19.8941C6.56306 20.487 8.2648 23.2141 8.81383 23.9614L9.87223 25.2972C10.0166 25.4606 10.1166 25.5235 10.2593 25.7083C10.6093 26.1615 11.0372 26.5375 11.4649 26.897C11.6374 27.0421 11.7045 27.1386 11.8834 27.2764C12.055 27.4087 12.1268 27.4935 12.3197 27.6381C14.7989 29.4967 17.7367 30.8676 21.0614 30.8676C24.5813 30.8676 26.6469 30.2952 29.4204 28.6521C30.9061 27.7719 32.1286 26.5717 33.2826 25.3316L35.5984 22.0608C35.7734 21.7651 36.624 20.1717 36.624 19.8939C36.624 19.4644 35.4316 17.4028 35.0147 16.7812C34.7948 16.4533 34.6037 16.139 34.3732 15.8266C33.6209 14.807 32.6917 13.7062 31.7222 12.891C31.5496 12.7459 31.4825 12.6494 31.3036 12.5116C31.132 12.3793 31.0602 12.2945 30.8674 12.1499C30.691 12.0178 30.5863 11.9408 30.4104 11.8087C28.2216 10.1636 25.0271 8.92044 22.1256 8.92044C18.6108 8.92044 16.5355 9.4956 13.7666 11.1359C13.0915 11.536 11.625 12.6659 11.0681 13.2259C9.81228 14.4881 9.21189 15.2294 8.19919 16.7416L7.58235 17.721C7.41018 18.0447 6.56306 19.609 6.56306 19.8941Z" fill="#0293DC"/>
<path fill-rule="evenodd" clip-rule="evenodd" d="M16.6055 19.8943C16.6055 19.616 16.6891 19.0907 16.7424 18.8341C16.9404 17.8821 17.4176 17.0534 18.085 16.3859C18.7329 15.738 19.5609 15.2513 20.4784 15.0548C24.1213 14.275 27.1855 17.393 26.4448 20.9547C26.2468 21.9068 25.7696 22.7354 25.1022 23.4029C24.6858 23.8192 24.2125 24.1672 23.6547 24.4161C22.6111 24.8818 21.6453 24.9769 20.5334 24.7455C18.2574 24.2721 16.6055 22.1517 16.6055 19.8943ZM14.6103 19.4953C14.6103 21.357 14.8627 22.4291 15.8863 23.9388C16.953 25.5118 19.1941 26.8775 21.1944 26.8775C23.0561 26.8775 24.1282 26.6249 25.6379 25.6014C27.2109 24.5348 28.5766 22.2937 28.5766 20.2933C28.5766 18.9609 28.5177 18.1005 27.9117 16.9012C27.1471 15.3884 26.1794 14.3781 24.6304 13.5982C21.9683 12.2574 18.7159 12.8953 16.6551 14.9562C15.5654 16.0458 14.6103 17.7956 14.6103 19.4953Z" fill="#0293DC"/>
<path fill-rule="evenodd" clip-rule="evenodd" d="M32.6202 2.43246H39.9174V9.7296H42.3498V0H32.6202V2.43246Z" fill="#0293DC"/>
<path fill-rule="evenodd" clip-rule="evenodd" d="M0.837158 9.7296H3.26961V2.43246H10.5668V0H0.837158V9.7296Z" fill="#0293DC"/>
<path fill-rule="evenodd" clip-rule="evenodd" d="M0.837316 39.7903H10.5669V37.3579H3.26977V30.0607H0.837316V39.7903Z" fill="#0293DC"/>
<path fill-rule="evenodd" clip-rule="evenodd" d="M39.9174 37.3579H32.6203V39.7903H42.3499V30.0607H39.9174V37.3579Z" fill="#0293DC"/>
<path fill-rule="evenodd" clip-rule="evenodd" d="M20.5959 19.9608C20.5877 19.9078 20.6502 19.6411 20.6725 19.5718C20.9815 18.6066 22.5001 18.7304 22.5751 19.8405C22.6571 21.0568 20.803 21.2993 20.5959 19.9608ZM18.6006 19.7612C18.6006 20.7887 18.8075 21.3363 19.4483 21.9728C19.7268 22.2495 19.8568 22.3916 20.2389 22.5787C21.7318 23.3096 23.5615 22.7121 24.2781 21.2485C25.2864 19.1891 23.7404 16.9013 21.7265 16.9013C19.9518 16.9013 18.6006 18.1622 18.6006 19.7612Z" fill="#0293DC"/>
</g>
</g>
</svg>
