<svg width="38" height="39" viewBox="0 0 38 39" fill="none" xmlns="http://www.w3.org/2000/svg">
<path d="M1.7757 0.886364C1.7757 1.37589 1.3782 1.77273 0.88785 1.77273C0.397504 1.77273 0 1.37589 0 0.886364C0 0.396838 0.397504 0 0.88785 0C1.3782 0 1.7757 0.396838 1.7757 0.886364Z" fill="white"/>
<path d="M1.7757 25.7045C1.7757 26.1941 1.3782 26.5909 0.88785 26.5909C0.397504 26.5909 0 26.1941 0 25.7045C0 25.215 0.397504 24.8182 0.88785 24.8182C1.3782 24.8182 1.7757 25.215 1.7757 25.7045Z" fill="white"/>
<path d="M13.8505 0.886364C13.8505 1.37589 13.453 1.77273 12.9626 1.77273C12.4723 1.77273 12.0748 1.37589 12.0748 0.886364C12.0748 0.396838 12.4723 0 12.9626 0C13.453 0 13.8505 0.396838 13.8505 0.886364Z" fill="white"/>
<path d="M13.8505 25.7045C13.8505 26.1941 13.453 26.5909 12.9626 26.5909C12.4723 26.5909 12.0748 26.1941 12.0748 25.7045C12.0748 25.215 12.4723 24.8182 12.9626 24.8182C13.453 24.8182 13.8505 25.215 13.8505 25.7045Z" fill="white"/>
<path d="M25.9252 0.886364C25.9252 1.37589 25.5277 1.77273 25.0374 1.77273C24.547 1.77273 24.1495 1.37589 24.1495 0.886364C24.1495 0.396838 24.547 0 25.0374 0C25.5277 0 25.9252 0.396838 25.9252 0.886364Z" fill="white"/>
<path d="M25.9252 25.7045C25.9252 26.1941 25.5277 26.5909 25.0374 26.5909C24.547 26.5909 24.1495 26.1941 24.1495 25.7045C24.1495 25.215 24.547 24.8182 25.0374 24.8182C25.5277 24.8182 25.9252 25.215 25.9252 25.7045Z" fill="white"/>
<path d="M38 0.886364C38 1.37589 37.6025 1.77273 37.1121 1.77273C36.6218 1.77273 36.2243 1.37589 36.2243 0.886364C36.2243 0.396838 36.6218 0 37.1121 0C37.6025 0 38 0.396838 38 0.886364Z" fill="white"/>
<path d="M38 25.7045C38 26.1941 37.6025 26.5909 37.1121 26.5909C36.6218 26.5909 36.2243 26.1941 36.2243 25.7045C36.2243 25.215 36.6218 24.8182 37.1121 24.8182C37.6025 24.8182 38 25.215 38 25.7045Z" fill="white"/>
<path d="M1.7757 13.2955C1.7757 13.785 1.3782 14.1818 0.88785 14.1818C0.397504 14.1818 0 13.785 0 13.2955C0 12.8059 0.397504 12.4091 0.88785 12.4091C1.3782 12.4091 1.7757 12.8059 1.7757 13.2955Z" fill="white"/>
<path d="M1.7757 38.1136C1.7757 38.6032 1.3782 39 0.88785 39C0.397504 39 0 38.6032 0 38.1136C0 37.6241 0.397504 37.2273 0.88785 37.2273C1.3782 37.2273 1.7757 37.6241 1.7757 38.1136Z" fill="white"/>
<path d="M13.8505 13.2955C13.8505 13.785 13.453 14.1818 12.9626 14.1818C12.4723 14.1818 12.0748 13.785 12.0748 13.2955C12.0748 12.8059 12.4723 12.4091 12.9626 12.4091C13.453 12.4091 13.8505 12.8059 13.8505 13.2955Z" fill="white"/>
<path d="M13.8505 38.1136C13.8505 38.6032 13.453 39 12.9626 39C12.4723 39 12.0748 38.6032 12.0748 38.1136C12.0748 37.6241 12.4723 37.2273 12.9626 37.2273C13.453 37.2273 13.8505 37.6241 13.8505 38.1136Z" fill="white"/>
<path d="M25.9252 13.2955C25.9252 13.785 25.5277 14.1818 25.0374 14.1818C24.547 14.1818 24.1495 13.785 24.1495 13.2955C24.1495 12.8059 24.547 12.4091 25.0374 12.4091C25.5277 12.4091 25.9252 12.8059 25.9252 13.2955Z" fill="white"/>
<path d="M25.9252 38.1136C25.9252 38.6032 25.5277 39 25.0374 39C24.547 39 24.1495 38.6032 24.1495 38.1136C24.1495 37.6241 24.547 37.2273 25.0374 37.2273C25.5277 37.2273 25.9252 37.6241 25.9252 38.1136Z" fill="white"/>
<path d="M38 13.2955C38 13.785 37.6025 14.1818 37.1121 14.1818C36.6218 14.1818 36.2243 13.785 36.2243 13.2955C36.2243 12.8059 36.6218 12.4091 37.1121 12.4091C37.6025 12.4091 38 12.8059 38 13.2955Z" fill="white"/>
<path d="M38 38.1136C38 38.6032 37.6025 39 37.1121 39C36.6218 39 36.2243 38.6032 36.2243 38.1136C36.2243 37.6241 36.6218 37.2273 37.1121 37.2273C37.6025 37.2273 38 37.6241 38 38.1136Z" fill="white"/>
</svg>
