<svg width="68" height="72" viewBox="0 0 68 72" fill="none" xmlns="http://www.w3.org/2000/svg">
<g id="&#208;&#162;&#208;&#190;&#209;&#135;&#208;&#186;&#208;&#184;">
<path d="M4.09415 1.92943C4.09415 2.99502 3.17765 3.85886 2.04708 3.85886C0.916508 3.85886 0 2.99502 0 1.92943C0 0.863835 0.916508 0 2.04708 0C3.17765 0 4.09415 0.863835 4.09415 1.92943Z" fill="white"/>
<path d="M4.09415 46.6922C4.09415 47.7578 3.17765 48.6216 2.04708 48.6216C0.916508 48.6216 0 47.7578 0 46.6922C0 45.6266 0.916508 44.7628 2.04708 44.7628C3.17765 44.7628 4.09415 45.6266 4.09415 46.6922Z" fill="white"/>
<path d="M25.3838 1.92943C25.3838 2.99502 24.4673 3.85886 23.3367 3.85886C22.2061 3.85886 21.2896 2.99502 21.2896 1.92943C21.2896 0.863835 22.2061 0 23.3367 0C24.4673 0 25.3838 0.863835 25.3838 1.92943Z" fill="white"/>
<path d="M25.3838 46.6922C25.3838 47.7578 24.4673 48.6216 23.3367 48.6216C22.2061 48.6216 21.2896 47.7578 21.2896 46.6922C21.2896 45.6266 22.2061 44.7628 23.3367 44.7628C24.4673 44.7628 25.3838 45.6266 25.3838 46.6922Z" fill="white"/>
<path d="M45.8545 1.92943C45.8545 2.99502 44.938 3.85886 43.8075 3.85886C42.6769 3.85886 41.7604 2.99502 41.7604 1.92943C41.7604 0.863835 42.6769 0 43.8075 0C44.938 0 45.8545 0.863835 45.8545 1.92943Z" fill="white"/>
<path d="M45.8545 46.6922C45.8545 47.7578 44.938 48.6216 43.8075 48.6216C42.6769 48.6216 41.7604 47.7578 41.7604 46.6922C41.7604 45.6266 42.6769 44.7628 43.8075 44.7628C44.938 44.7628 45.8545 45.6266 45.8545 46.6922Z" fill="white"/>
<path d="M67.1441 1.92943C67.1441 2.99502 66.2276 3.85886 65.0971 3.85886C63.9665 3.85886 63.05 2.99502 63.05 1.92943C63.05 0.863835 63.9665 0 65.0971 0C66.2276 0 67.1441 0.863835 67.1441 1.92943Z" fill="white"/>
<path d="M67.1441 46.6922C67.1441 47.7578 66.2276 48.6216 65.0971 48.6216C63.9665 48.6216 63.05 47.7578 63.05 46.6922C63.05 45.6266 63.9665 44.7628 65.0971 44.7628C66.2276 44.7628 67.1441 45.6266 67.1441 46.6922Z" fill="white"/>
<path d="M4.09415 24.3108C4.09415 25.3764 3.17765 26.2402 2.04708 26.2402C0.916508 26.2402 0 25.3764 0 24.3108C0 23.2452 0.916508 22.3814 2.04708 22.3814C3.17765 22.3814 4.09415 23.2452 4.09415 24.3108Z" fill="white"/>
<path d="M4.09415 69.0736C4.09415 70.1392 3.17765 71.003 2.04708 71.003C0.916508 71.003 0 70.1392 0 69.0736C0 68.008 0.916508 67.1441 2.04708 67.1441C3.17765 67.1441 4.09415 68.008 4.09415 69.0736Z" fill="white"/>
<path d="M25.3838 24.3108C25.3838 25.3764 24.4673 26.2402 23.3367 26.2402C22.2061 26.2402 21.2896 25.3764 21.2896 24.3108C21.2896 23.2452 22.2061 22.3814 23.3367 22.3814C24.4673 22.3814 25.3838 23.2452 25.3838 24.3108Z" fill="white"/>
<path d="M25.3838 69.0736C25.3838 70.1392 24.4673 71.003 23.3367 71.003C22.2061 71.003 21.2896 70.1392 21.2896 69.0736C21.2896 68.008 22.2061 67.1441 23.3367 67.1441C24.4673 67.1441 25.3838 68.008 25.3838 69.0736Z" fill="white"/>
<path d="M45.8545 24.3108C45.8545 25.3764 44.938 26.2402 43.8075 26.2402C42.6769 26.2402 41.7604 25.3764 41.7604 24.3108C41.7604 23.2452 42.6769 22.3814 43.8075 22.3814C44.938 22.3814 45.8545 23.2452 45.8545 24.3108Z" fill="white"/>
<path d="M45.8545 69.0736C45.8545 70.1392 44.938 71.003 43.8075 71.003C42.6769 71.003 41.7604 70.1392 41.7604 69.0736C41.7604 68.008 42.6769 67.1441 43.8075 67.1441C44.938 67.1441 45.8545 68.008 45.8545 69.0736Z" fill="white"/>
<path d="M67.1441 24.3108C67.1441 25.3764 66.2276 26.2402 65.0971 26.2402C63.9665 26.2402 63.05 25.3764 63.05 24.3108C63.05 23.2452 63.9665 22.3814 65.0971 22.3814C66.2276 22.3814 67.1441 23.2452 67.1441 24.3108Z" fill="white"/>
<path d="M67.1441 69.0736C67.1441 70.1392 66.2276 71.003 65.0971 71.003C63.9665 71.003 63.05 70.1392 63.05 69.0736C63.05 68.008 63.9665 67.1441 65.0971 67.1441C66.2276 67.1441 67.1441 68.008 67.1441 69.0736Z" fill="white"/>
</g>
</svg>
