<svg width="60" height="58" viewBox="0 0 60 58" fill="none" xmlns="http://www.w3.org/2000/svg">
<g id="&#208;&#152;&#208;&#186;&#208;&#190;&#208;&#189;&#208;&#186;&#208;&#176; 1">
<path id="Vector" d="M16.0899 0C18.5389 0 20.7566 0.984051 22.3615 2.57476C23.5343 3.73706 24.3795 5.22266 24.7504 6.88528H58.0769C59.1386 6.88528 59.9994 7.73841 59.9994 8.79069C59.9994 9.84297 59.1386 10.6961 58.0769 10.6961H24.7504C24.3795 12.3587 23.5336 13.8449 22.3615 15.0066C20.7566 16.5973 18.5389 17.5814 16.0899 17.5814C13.6409 17.5814 11.4233 16.5973 9.8183 15.0066C8.64558 13.8443 7.80031 12.3587 7.42946 10.6961H1.92248C0.860775 10.6961 0 9.84297 0 8.79069C0 7.73841 0.860775 6.88528 1.92248 6.88528H7.42946C7.80031 5.22266 8.6462 3.73644 9.8183 2.57476C11.4233 0.984051 13.6409 0 16.0899 0ZM25.2465 40.4186C27.6955 40.4186 29.9132 41.4027 31.5181 42.9934C32.6909 44.1557 33.5361 45.6413 33.907 47.3039H58.0769C59.1386 47.3039 59.9994 48.157 59.9994 49.2093C59.9994 50.2616 59.1386 51.1147 58.0769 51.1147H33.907C33.5361 52.7773 32.6902 54.2635 31.5181 55.4252C29.9132 57.0159 27.6955 58 25.2465 58C22.7975 58 20.5798 57.0159 18.9749 55.4252C17.8022 54.2629 16.9569 52.7773 16.586 51.1147H1.92248C0.860775 51.1147 0 50.2616 0 49.2093C0 48.157 0.860775 47.3039 1.92248 47.3039H16.586C16.9569 45.6413 17.8028 44.1551 18.9749 42.9934C20.5798 41.4027 22.7975 40.4186 25.2465 40.4186ZM28.8 45.688C27.8909 44.7869 26.6344 44.2294 25.2465 44.2294C23.8586 44.2294 22.6022 44.7869 21.693 45.688C20.7839 46.5891 20.2214 47.8343 20.2214 49.2099C20.2214 50.5855 20.7839 51.8308 21.693 52.7318C22.6022 53.6329 23.8586 54.1904 25.2465 54.1904C26.6344 54.1904 27.8909 53.6329 28.8 52.7318C29.7091 51.8308 30.2716 50.5855 30.2716 49.2099C30.2716 47.8343 29.7091 46.5891 28.8 45.688ZM43.9101 20.1764C41.4611 20.1764 39.2434 21.1605 37.6384 22.7512C36.4657 23.9135 35.6205 25.3991 35.2496 27.0617H1.9231C0.861395 27.0617 0.000620155 27.9148 0.000620155 28.9671C0.000620155 30.0194 0.861395 30.8725 1.9231 30.8725H35.2496C35.6205 32.5351 36.4664 34.0214 37.6384 35.183C39.2434 36.7738 41.4611 37.7578 43.9101 37.7578C46.3591 37.7578 48.5767 36.7738 50.1817 35.183C51.3544 34.0207 52.1997 32.5351 52.5705 30.8725H58.0775C59.1392 30.8725 60 30.0194 60 28.9671C60 27.9148 59.1392 27.0617 58.0775 27.0617H52.5705C52.1997 25.3991 51.3538 23.9129 50.1817 22.7512C48.5767 21.1605 46.3591 20.1764 43.9101 20.1764ZM40.3566 25.4458C41.2657 24.5447 42.5222 23.9872 43.9101 23.9872C45.298 23.9872 46.5544 24.5447 47.4636 25.4458C48.3727 26.3469 48.9352 27.5921 48.9352 28.9677C48.9352 30.3433 48.3727 31.5886 47.4636 32.4897C46.5544 33.3907 45.298 33.9482 43.9101 33.9482C42.5222 33.9482 41.2657 33.3907 40.3566 32.4897C39.4474 31.5886 38.885 30.3433 38.885 28.9677C38.885 27.5921 39.4474 26.3469 40.3566 25.4458ZM19.644 5.26937C18.7349 4.3683 17.4784 3.81082 16.0905 3.81082C14.7026 3.81082 13.4462 4.3683 12.5371 5.26937C11.6279 6.17045 11.0654 7.41572 11.0654 8.7913C11.0654 10.1669 11.6279 11.4122 12.5371 12.3132C13.4462 13.2143 14.7026 13.7718 16.0905 13.7718C17.4784 13.7718 18.7349 13.2143 19.644 12.3132C20.5532 11.4122 21.1157 10.1669 21.1157 8.7913C21.1157 7.41572 20.5532 6.17045 19.644 5.26937Z" fill="#0293DC"/>
</g>
</svg>
