<svg width="19" height="11" viewBox="0 0 19 11" fill="none" xmlns="http://www.w3.org/2000/svg">
<path id="Vector" fill-rule="evenodd" clip-rule="evenodd" d="M0.000160468 0.460103C0.000160468 0.971889 0.0855293 1.11005 0.210694 1.53934C0.303123 1.85623 0.412241 2.11441 0.535481 2.40644C0.656473 2.69314 0.77217 2.96856 0.909691 3.22658C0.975804 3.35072 1.03357 3.50184 1.10691 3.62704C1.74107 4.70857 1.96396 5.14395 2.71447 6.21419C3.17261 6.86734 3.31366 7.01023 3.76874 7.56365C4.27502 8.17929 5.04061 8.79431 5.72741 9.22939C6.97986 10.023 8.72704 10.5837 10.2574 10.3117C11.3813 10.1118 10.6998 9.03663 10.9243 7.62572C10.9644 7.37363 11.0962 7.27222 11.3892 7.27222C11.9746 7.27222 12.8671 7.96075 13.2357 8.31836C13.4127 8.49008 13.5791 8.577 13.7389 8.77373C13.8914 8.96145 14.0449 9.08848 14.2186 9.25166C14.7452 9.74652 15.0612 10.3844 16.0103 10.3844H17.7933C18.3777 10.3844 18.6013 10.1927 18.6301 9.92585V9.79623C18.5911 9.38769 18.2121 8.86355 17.97 8.55672C17.8251 8.37311 17.7065 8.23403 17.5499 8.05698C17.4578 7.95283 17.426 7.91562 17.3291 7.81725L15.6737 6.13992C14.9549 5.45703 15.3035 5.39756 16.0758 4.29164C16.3578 3.88782 16.6195 3.51542 16.9056 3.10916C17.4172 2.38281 17.6362 1.95962 18.0236 1.2322C18.3387 0.640204 18.4969 0.0105364 17.5022 0.0105364H15.6464C15.028 0.0105364 14.7887 0.254992 14.5963 0.706998C14.4103 1.14375 13.7948 2.23763 13.5518 2.61918C13.2071 3.16055 11.9779 5.0247 11.2435 5.0247C10.8008 5.0247 10.916 4.34165 10.916 3.77985C10.916 3.21103 10.9476 1.19911 10.914 0.8078C10.8675 0.263684 10.825 0.0106889 10.1883 0.0106889H7.20452C6.73948 0.0106889 6.32066 0.332919 6.80913 0.905094C7.15445 1.30967 7.38649 1.7324 7.38649 2.32745C7.38649 2.81865 7.43495 5.32481 7.34477 5.60739C7.11 6.3429 6.13933 5.20678 5.95881 4.99831C5.89831 4.92847 5.87199 4.88562 5.82161 4.81745L4.8511 3.31915C4.31465 2.40705 4.12514 1.88307 3.74788 0.978751C3.68225 0.821373 3.62673 0.634866 3.542 0.482825C3.34864 0.135433 3.12142 0.0105364 2.58353 0.0105364C2.1493 0.0105364 0.581374 -0.0439056 0.270549 0.0947158C0.131423 0.156783 0 0.284729 0 0.460103H0.000160468Z" fill="#82A6BF"/>
</svg>
