<?xml version="1.0" encoding="utf-8"?><svg width="27" height="13" xmlns="http://www.w3.org/2000/svg" viewBox="0 0 27 13"><g fill-rule="evenodd" clip-rule="evenodd"><path d="M27 12.989l-.002-1.716H16.53c-1.608 0-3.368.12-4.734-.508-1.087-.5-2.06-1.498-2.482-2.748-1.05-3.109 1.141-5.765 3.71-6.213 2.729-.477 5.248 1.38 5.626 4.004.026.18.016.43.068.59.213.078 1.387.022 1.721.022.074-1.218-.522-2.68-1.182-3.647C18.185 1.2 16.1.002 13.863.009 9.136.024 5.936 4.816 7.894 9.152c1.002 2.219 3.233 3.73 6.003 3.812 2.147.063 4.356.024 6.516.024H27z"/><path d="M27 10.225l-.001-1.658h-9.557c-1.047 0-2.171.04-3.209-.002-1.07-.043-1.727-.358-2.136-1.028-.984-1.615.637-3.658 2.526-2.958.438.162.68.387.908.67.289.36.33.633.433 1.17h1.651c.09-1.023-.65-2.299-1.483-2.895-.948-.678-2.166-.985-3.518-.526-2.308.783-3.25 3.6-1.79 5.628.706.981 1.633 1.4 2.862 1.546.767.09 3.446.053 4.398.053H27zM1.92 1.721l.125.013 2.431-.002.009 11.123.005.118 1.74.008.012-.126L6.24 0H1.92v1.721z"/><path d="M.005 4.254H1.92l.005 8.726h1.68V2.598L0 2.613l.005 1.64z"/></g></svg>