<?xml version="1.0" encoding="utf-8"?><svg width="44" height="43" xmlns="http://www.w3.org/2000/svg" viewBox="0 0 44 43"><g fill-rule="evenodd" clip-rule="evenodd"><path d="M38 29.986l-.002-2.111H25.592c-1.907 0-3.993.148-5.611-.625-1.288-.616-2.441-1.844-2.942-3.383a5.84 5.84 0 014.396-7.647c3.235-.587 6.22 1.7 6.668 4.928.03.223.019.53.082.727.252.095 1.643.026 2.039.026.088-1.498-.619-3.298-1.401-4.489-1.27-1.933-3.74-3.41-6.393-3.4-5.602.018-9.395 5.915-7.074 11.252 1.188 2.73 3.831 4.592 7.115 4.692 2.544.077 5.162.03 7.723.03H38z"/><path d="M38 26.584l-.001-2.04H26.672c-1.241 0-2.573.048-3.803-.003-1.268-.052-2.047-.44-2.531-1.265-1.167-1.988.754-4.502 2.993-3.64.52.199.806.475 1.076.824.343.444.39.78.514 1.441h1.956c.107-1.26-.77-2.83-1.758-3.564-1.123-.834-2.567-1.212-4.169-.647-2.735.964-3.853 4.431-2.122 6.927.837 1.207 1.936 1.723 3.392 1.902.91.112 4.085.065 5.212.065H38zM8.276 16.118l.147.016 2.882-.003.01 13.69.006.146 2.062.01.015-.155L13.395 14H8.276v2.118z"/><path d="M6.006 19.235l2.27.002.007 10.738 1.992.001v-12.78L6 17.217l.006 2.02z"/></g><rect x=".5" y=".5" width="43" height="42" rx="21"/></svg>