<?xml version="1.0" encoding="utf-8"?><svg width="27" height="14" xmlns="http://www.w3.org/2000/svg" viewBox="0 0 27 14"><g fill-rule="evenodd" clip-rule="evenodd"><path d="M26.408 13.145l-.002-1.652H16.322c-1.55 0-3.245.116-4.56-.49-1.047-.48-1.984-1.442-2.392-2.647-1.012-2.995 1.1-5.553 3.574-5.985 2.63-.46 5.056 1.33 5.42 3.857.025.174.015.414.066.569.205.074 1.336.02 1.657.02.072-1.172-.503-2.58-1.138-3.513-1.033-1.513-3.04-2.669-5.196-2.662-4.554.015-7.636 4.63-5.75 8.807.965 2.138 3.114 3.595 5.783 3.673 2.068.06 4.195.023 6.277.023h6.345z"/><path d="M26.407 10.483V8.886H17.2c-1.008 0-2.091.038-3.09-.002-1.031-.041-1.665-.344-2.058-.99-.949-1.556.613-3.524 2.433-2.85.422.156.655.373.874.646.279.347.317.61.418 1.128h1.59c.087-.986-.625-2.216-1.429-2.79-.913-.653-2.086-.949-3.388-.507-2.224.755-3.132 3.469-1.725 5.422.68.945 1.574 1.35 2.757 1.49.74.087 3.32.05 4.236.05h8.59zM2.248 2.291l.12.013 2.342-.002.009 10.715.004.114 1.676.007.012-.12L6.41.632H2.25v1.658z"/><path d="M.403 4.731l1.845.001.006 8.405h1.619V3.136L.398 3.15l.005 1.581z"/></g></svg>