<?xml version="1.0" encoding="utf-8"?><svg width="70" height="70" xmlns="http://www.w3.org/2000/svg" viewBox="0 0 70 70"><g fill-rule="evenodd" clip-rule="evenodd"><path d="M9.332 63.591l-2.749-2.82 11.874-11.807 2.754 2.681L9.332 63.591zM44.171.753h1.496c4.694 0 11.706 3.166 15.066 6.405l4.28 4.846c.883 1.19 1.502 2.541 2.17 3.868 1.87 3.706 2.37 7.539 2.37 11.99 0 3.144-1.224 7.556-2.55 10.199-2.84 5.664-5.866 8.426-10.842 11.569-.696.44-1.321.628-2.087 1-6.346 3.073-15.247 3.117-21.649-.134l-2.763-1.464L9.297 69.33l-6.341-6.408c-.45-.45-1.71-1.547-1.98-2.13v-.118l20.13-20.197a32.22 32.22 0 00-.781-1.366c-1.974-3.314-3.11-8.52-3.11-12.591 0-4.84 1.436-9.256 3.85-13.328 2.337-3.943 6.27-7.655 10.33-9.666C36.68.91 39.07.76 44.168.753h.002zM23.625 43.798c.35.506.849 1.052 1.273 1.476.425.425.97.924 1.444 1.24l-2.25 2.315-2.683-2.75 2.216-2.28zm20.968 4.998c-3.164 0-3.834.043-6.926-.723a18.464 18.464 0 01-3.81-1.424c-1.351-.677-3.558-1.948-4.666-2.984-2.586-2.42-2.624-2.446-4.729-5.604-1.543-2.316-3.086-7.094-3.086-9.931 0-3.664.05-5.68 1.398-9.204 1.474-3.855 3.392-6.306 6.282-8.882.239-.212.287-.3.56-.513 8.16-6.375 18.968-6.455 27.169-.304 1.43 1.073 1.951 1.694 3.21 2.964 2.186 2.207 4.13 6.525 4.864 9.36 1.19 4.598.63 9.4-1.114 13.789-2.157 5.431-6.976 9.9-12.402 12.021-1.61.63-4.612 1.436-6.75 1.436z"/><path d="M45.398 36.852h4.026V12.697h-4.026v24.155zM37.347 36.852h4.026V20.75h-4.026v16.104zM53.45 36.852h4.026V20.75H53.45v16.104zM29.295 36.853h3.757c.31 0 .403-.094.403-.403V28.8h-4.16v8.053z"/></g></svg>