<?xml version="1.0" encoding="utf-8"?><svg width="48" height="47" xmlns="http://www.w3.org/2000/svg" viewBox="0 0 48 47"><path fill-rule="evenodd" clip-rule="evenodd" d="M6.144 42.668l-1.866-1.915 8.063-8.017 1.87 1.82-8.067 8.112zM29.8 0h1.016c3.187 0 7.948 2.15 10.23 4.35l2.906 3.29c.6.808 1.02 1.725 1.474 2.626 1.27 2.517 1.61 5.119 1.61 8.141 0 2.136-.832 5.131-1.732 6.926-1.93 3.846-3.984 5.72-7.362 7.855-.473.298-.897.427-1.418.679-4.308 2.087-10.353 2.117-14.7-.09l-1.875-.995L6.12 46.565l-4.305-4.351c-.306-.306-1.161-1.05-1.344-1.446v-.08l13.668-13.715a21.76 21.76 0 00-.53-.927c-1.341-2.25-2.113-5.786-2.113-8.55 0-3.287.976-6.285 2.615-9.05 1.587-2.677 4.257-5.197 7.014-6.563C24.715.106 26.337.005 29.799 0h.001zM15.85 29.228c.237.344.576.714.864 1.003.288.288.658.627.98.842l-1.527 1.571-1.822-1.866 1.504-1.55zm14.237 3.394c-2.149 0-2.603.03-4.703-.491a12.54 12.54 0 01-2.587-.967c-.917-.46-2.416-1.322-3.168-2.026-1.756-1.643-1.782-1.66-3.211-3.805-1.048-1.573-2.096-4.817-2.096-6.743 0-2.489.034-3.857.95-6.25 1-2.618 2.303-4.282 4.265-6.03.162-.145.195-.204.38-.35 5.541-4.328 12.88-4.382 18.448-.206.972.729 1.325 1.15 2.18 2.013 1.484 1.498 2.804 4.43 3.303 6.356.808 3.121.428 6.382-.756 9.362-1.465 3.688-4.737 6.722-8.422 8.163-1.093.427-3.132.975-4.584.975z"/><path fill-rule="evenodd" clip-rule="evenodd" d="M30.634 24.512h2.733V8.11h-2.733v16.402zM25.166 24.512H27.9V13.578h-2.733v10.934zM36.101 24.512h2.734V13.578H36.1v10.934zM19.7 24.512h2.55c.21 0 .274-.063.274-.273v-5.194h-2.825v5.467z"/></svg>