<?xml version="1.0" encoding="utf-8"?><svg width="36" height="36" xmlns="http://www.w3.org/2000/svg" viewBox="0 0 36 36"><path fill-rule="evenodd" clip-rule="evenodd" d="M4.371 32.873l-1.438-1.476 6.212-6.177 1.44 1.404-6.214 6.249zM22.596 0h.783c2.455 0 6.123 1.656 7.881 3.35L33.5 5.887c.462.622.786 1.33 1.136 2.023.977 1.94 1.24 3.944 1.24 6.272 0 1.646-.64 3.954-1.334 5.336-1.486 2.963-3.07 4.408-5.672 6.052-.364.23-.692.329-1.092.523-3.32 1.608-7.977 1.63-11.325-.07l-1.446-.766L4.353 35.875l-3.318-3.353C.8 32.287.141 31.713 0 31.41v-.062L10.53 20.78a16.922 16.922 0 00-.408-.715c-1.033-1.733-1.627-4.457-1.627-6.586 0-2.533.751-4.843 2.014-6.973 1.222-2.062 3.28-4.004 5.403-5.056C18.678.081 19.928.004 22.596.001L22.596 0zM11.848 22.518c.183.265.444.55.666.773.222.221.508.483.755.648l-1.176 1.211-1.404-1.438 1.16-1.194zm10.969 2.615c-1.655 0-2.006.022-3.623-.379a9.649 9.649 0 01-1.993-.744c-.707-.355-1.862-1.02-2.441-1.561-1.353-1.266-1.373-1.28-2.474-2.932-.807-1.212-1.614-3.711-1.614-5.195 0-1.917.026-2.971.73-4.815.772-2.017 1.775-3.3 3.287-4.646.125-.111.15-.157.294-.269 4.268-3.335 9.922-3.377 14.212-.159.748.562 1.02.887 1.679 1.55 1.144 1.155 2.16 3.414 2.545 4.897.623 2.405.33 4.917-.583 7.213-1.128 2.842-3.65 5.18-6.488 6.29-.842.328-2.413.75-3.531.75z"/><path fill-rule="evenodd" clip-rule="evenodd" d="M23.238 18.885h2.107V6.248h-2.107v12.637zM19.026 18.885h2.106V10.46h-2.106v8.425zM27.45 18.885h2.107V10.46H27.45v8.425zM14.814 18.885h1.966c.162 0 .21-.049.21-.21v-4.002h-2.176v4.212z"/></svg>