<?xml version="1.0" encoding="utf-8"?><svg width="60" height="60" xmlns="http://www.w3.org/2000/svg" viewBox="0 0 60 60"><path fill-rule="evenodd" clip-rule="evenodd" d="M37.027 12.194l2.033 8.747 8.747 2.033c.797 0 6.93-6.96 8.437-7.969 0 3.148.114 3.985-.672 6.36-1.359 4.108-4.97 7.306-9.215 8.36-5.282 1.31-6.55-.425-8.392-.425-1.035 0-6.84 6.253-7.91 7.323L14.588 52.089c-1.285 1.285-2.497 2.785-4.041 3.692-1.753 1.028-4.277.553-5.58-.75-1.212-1.212-1.818-3.63-.836-5.431 1.055-1.937 16.464-16.876 19.128-19.539 1.091-1.091 7.44-6.987 7.44-8.025 0-2.28-2.375-3.79.434-10.816.657-1.645 1.324-2.141 2.142-3.247 1.14-1.542 3.76-2.991 5.533-3.606 2.858-.991 3.923-.61 6.187-.61-1.008 1.506-7.968 7.64-7.968 8.437zM41.681.008c2.614 0 8.704-.336 8.704 3.281 0 1.1-9.374 8.98-9.374 10.077l.937 4.687 4.687.937c.717 0 2.115-1.764 2.636-2.285l4.921-4.921c.508-.508 1.813-2.167 2.52-2.167 3.599 0 3.28 6.044 3.28 8.634-.999 10.76-10.878 17.468-21.325 15.034-1.601 1.073-21.452 21.827-24.67 24.543-1.528 1.29-3.307 2.018-5.091 2.172H7.472c-1.851-.163-3.637-.956-5.076-2.396C.956 56.165.162 54.38 0 52.528v-1.434c.154-1.785.881-3.564 2.172-5.092 2.716-3.217 23.471-23.068 24.543-24.668-.606-2.604-.468-2.718-.468-5.39C26.247 7.587 33.703.835 41.68.007z"/></svg>