<?xml version="1.0" encoding="utf-8"?><svg width="33" height="33" xmlns="http://www.w3.org/2000/svg" viewBox="0 0 33 33"><path fill-rule="evenodd" clip-rule="evenodd" d="M20.365 6.707l1.118 4.81 4.81 1.118c.44 0 3.813-3.827 4.641-4.382 0 1.731.063 2.191-.37 3.497-.747 2.26-2.733 4.02-5.068 4.599-2.905.72-3.602-.234-4.615-.234-.57 0-3.763 3.44-4.35 4.027L8.022 28.65c-.706.707-1.373 1.532-2.222 2.03-.964.566-2.353.305-3.07-.412-.666-.666-.999-1.996-.46-2.987.581-1.065 9.056-9.282 10.521-10.746.6-.6 4.093-3.843 4.093-4.414 0-1.254-1.307-2.085.238-5.949.362-.905.729-1.178 1.178-1.786.628-.848 2.068-1.645 3.044-1.983 1.571-.545 2.157-.336 3.402-.336-.554.829-4.382 4.202-4.382 4.64zm2.56-6.702c1.437 0 4.787-.185 4.787 1.804 0 .605-5.156 4.939-5.156 5.542l.515 2.578 2.578.515c.395 0 1.164-.97 1.45-1.257l2.707-2.706c.279-.28.996-1.192 1.386-1.192 1.979 0 1.804 3.324 1.804 4.749-.55 5.918-5.983 9.607-11.73 8.269-.88.59-11.798 12.004-13.567 13.498-.841.71-1.82 1.11-2.8 1.195h-.79c-1.017-.09-2-.526-2.791-1.318A4.477 4.477 0 010 28.89v-.788c.085-.982.485-1.96 1.195-2.8 1.494-1.77 12.909-12.688 13.498-13.569-.333-1.431-.257-1.494-.257-2.964 0-4.596 4.1-8.309 8.489-8.764z"/></svg>