<?xml version="1.0" encoding="utf-8"?><svg width="29" height="29" xmlns="http://www.w3.org/2000/svg" viewBox="0 0 29 29"><path d="M14.5 17.944a.906.906 0 100 1.811.906.906 0 000-1.811zm0-1.994a.725.725 0 00.725-.725v-5.8a.725.725 0 00-1.45 0v5.8a.725.725 0 00.725.725zM14.5 0C6.492 0 0 6.492 0 14.5S6.492 29 14.5 29c8.004-.009 14.491-6.496 14.5-14.5C29 6.492 22.508 0 14.5 0zm0 27.55A13.048 13.048 0 015.272 5.272 13.05 13.05 0 0114.5 1.45 13.064 13.064 0 0127.55 14.5 13.05 13.05 0 0114.5 27.55z"/></svg>