<?xml version="1.0" encoding="utf-8"?><svg width="63" height="62" xmlns="http://www.w3.org/2000/svg" viewBox="0 0 63 62"><g fill-rule="evenodd" clip-rule="evenodd"><path d="M4.58 54.12V42.372h53.702V54.12c0 2.231-1.364 3.596-3.595 3.596H8.177c-2.232 0-3.597-1.365-3.597-3.596zm0-30.926h53.702v15.343H4.58V23.194zm0-15.584c0-2.23 1.364-3.595 3.596-3.595h46.51c2.231 0 3.596 1.364 3.596 3.595v11.748H4.579V7.61zM.744 6.771V54.96c0 3.32 3.274 6.593 6.593 6.593h48.308c2.39 0 4.686-1.87 5.794-3.916.263-.486.679-1.861.679-2.557V6.77c0-3.319-3.274-6.592-6.593-6.592H7.337C4.015.179.744 3.449.744 6.77z"/><path d="M39.103 30.625c0 1.195.313 2.1 1.484 2.592 2.083.874 3.67-.83 3.67-2.352 0-3.437-5.154-3.326-5.154-.24zM49.292 30.866c0 1.955 2.39 3.559 4.339 1.94 1.626-1.35.763-4.65-1.813-4.56-1.313.046-2.526 1.21-2.526 2.62zM31.191 53.88c1.195 0 2.1-.313 2.592-1.484.478-1.14.3-2.015-.52-2.866-1.658-1.724-4.241-.475-4.444 1.621-.13 1.347 1.06 2.73 2.372 2.73zM31.191 28.348c-.394.095-1.053-.013-1.768.87-.347.43-.681 1.232-.572 1.94.557 3.607 5.645 2.56 5.158-.585-.224-1.455-1.546-2.53-2.818-2.225zM31.191 15.522c1.195 0 2.1-.314 2.592-1.484.874-2.083-.83-3.67-2.352-3.67-1.427 0-2.49 1.173-2.611 2.425-.13 1.346 1.06 2.729 2.371 2.729zM49.292 12.885c0 3.424 5.154 3.671 5.154-.12 0-3.21-5.154-3.079-5.154.12zM49.292 51.243c0 3.425 5.154 3.672 5.154-.12 0-3.21-5.154-3.078-5.154.12zM39.103 12.764c0 3.807 5.154 3.525 5.154.12 0-3.2-5.154-3.33-5.154-.12zM39.103 51.123c0 3.807 5.154 3.525 5.154.12 0-3.199-5.154-3.33-5.154-.12z"/></g></svg>