<?xml version="1.0" encoding="utf-8"?><svg width="43" height="42" xmlns="http://www.w3.org/2000/svg" viewBox="0 0 43 42"><g fill-rule="evenodd" clip-rule="evenodd"><path d="M3.05 36.627V28.65h36.464v7.977c0 1.515-.927 2.441-2.442 2.441H5.492c-1.516 0-2.443-.926-2.443-2.441zm0-21h36.464v10.419H3.049V15.627zm0-10.58c0-1.516.926-2.442 2.44-2.442h31.582c1.515 0 2.441.926 2.441 2.441v7.977H3.05V5.046zm-2.605-.57v32.72c0 2.254 2.223 4.476 4.476 4.476h32.802c1.623 0 3.182-1.27 3.934-2.658.179-.33.461-1.264.461-1.737V4.476C42.118 2.223 39.895 0 37.642 0H4.922C2.664 0 .444 2.22.444 4.476z"/><path d="M26.49 20.674c0 .81.214 1.425 1.009 1.76 1.414.593 2.492-.564 2.492-1.598 0-2.333-3.5-2.258-3.5-.162zM33.41 20.837c0 1.328 1.623 2.417 2.946 1.318 1.104-.917.518-3.158-1.232-3.097-.891.031-1.715.821-1.715 1.779zM21.119 36.464c.811 0 1.425-.213 1.76-1.008.324-.774.203-1.368-.353-1.946-1.126-1.17-2.88-.322-3.018 1.101-.088.914.72 1.853 1.61 1.853zM21.119 19.128c-.268.064-.716-.01-1.2.59-.236.292-.464.837-.39 1.318.38 2.448 3.833 1.737 3.503-.398-.152-.988-1.05-1.718-1.913-1.51zM21.119 10.418c.811 0 1.426-.213 1.76-1.008.593-1.414-.564-2.492-1.597-2.492-.97 0-1.692.797-1.774 1.647-.088.914.72 1.853 1.61 1.853zM33.41 8.627c0 2.326 3.5 2.493 3.5-.08 0-2.18-3.5-2.091-3.5.08zM33.41 34.673c0 2.326 3.5 2.493 3.5-.08 0-2.18-3.5-2.091-3.5.08zM26.49 8.546c0 2.584 3.5 2.393 3.5.081 0-2.172-3.5-2.261-3.5-.081zM26.49 34.592c0 2.585 3.5 2.394 3.5.081 0-2.172-3.5-2.26-3.5-.08z"/></g></svg>