<?xml version="1.0" encoding="utf-8"?><svg width="36" height="36" xmlns="http://www.w3.org/2000/svg" viewBox="0 0 36 36"><path fill-rule="evenodd" clip-rule="evenodd" d="M2.242 31.53v-6.867h31.39v6.867c0 1.304-.797 2.102-2.101 2.102H4.344c-1.304 0-2.102-.798-2.102-2.102zm0-18.077h31.39v8.969H2.243v-8.97zm0-9.109c0-1.304.798-2.102 2.102-2.102h27.187c1.304 0 2.101.798 2.101 2.102v6.867H2.242V4.344zM0 3.854V32.02c0 1.94 1.914 3.854 3.854 3.854H32.09c1.397 0 2.74-1.094 3.387-2.289.154-.284.397-1.088.397-1.495V3.854C35.875 1.914 33.96 0 32.02 0H3.854C1.912 0 0 1.912 0 3.854z"/><path fill-rule="evenodd" clip-rule="evenodd" d="M22.422 17.797c0 .698.183 1.227.867 1.515 1.218.51 2.146-.485 2.146-1.375 0-2.01-3.013-1.944-3.013-.14zM28.378 17.937c0 1.143 1.397 2.08 2.536 1.135.95-.79.446-2.719-1.06-2.666-.767.027-1.476.707-1.476 1.531zM17.797 31.39c.699 0 1.228-.183 1.515-.867.28-.667.175-1.178-.303-1.676-.97-1.008-2.48-.277-2.598.948-.076.787.62 1.595 1.386 1.595zM17.797 16.466c-.23.055-.616-.008-1.033.508-.203.251-.399.72-.335 1.135.326 2.108 3.3 1.495 3.016-.343-.132-.85-.904-1.479-1.648-1.3zM17.797 8.968c.699 0 1.228-.183 1.515-.867.511-1.218-.485-2.145-1.375-2.145-.833 0-1.455.686-1.526 1.418-.076.786.62 1.594 1.386 1.594zM28.378 7.427c0 2.002 3.012 2.146 3.012-.07 0-1.877-3.012-1.8-3.012.07zM28.378 29.849c0 2.001 3.012 2.146 3.012-.07 0-1.877-3.012-1.8-3.012.07zM22.422 7.357c0 2.225 3.013 2.06 3.013.07 0-1.87-3.013-1.947-3.013-.07zM22.422 29.779c0 2.225 3.013 2.06 3.013.07 0-1.87-3.013-1.947-3.013-.07z"/></svg>