<?xml version="1.0" encoding="utf-8"?><svg width="17" height="13" xmlns="http://www.w3.org/2000/svg" viewBox="0 0 17 13"><path fill-rule="evenodd" clip-rule="evenodd" d="M2.279 12.983c.266-3.197-.805-7.219 1.705-7.47 1.759-.177 1.628 1.47 1.628 2.948l.012 4.537 2.27-.033c.08-1.467.166-6.844-.352-7.858-.44-.863-1.319-1.474-2.642-1.45-1.733.033-2.294 1.237-2.604 1.29L2.303.002 0 0l.026 13 2.252-.016zm9.055-.003c.239-3.175-.787-7.23 1.71-7.469 1.743-.167 1.622 1.483 1.622 2.95l.014 4.534 2.253.004c.135-1.02.025-2.95.025-4.067 0-1.18.127-2.762-.34-3.764-.72-1.547-2.72-1.894-4.12-1.125-.785.432-.735.68-1.15.913L11.323.01 9.06.035l.008 12.959 2.267-.013z"/></svg>