<?xml version="1.0" encoding="utf-8"?><svg width="44" height="43" xmlns="http://www.w3.org/2000/svg" viewBox="0 0 44 43"><path fill-rule="evenodd" clip-rule="evenodd" d="M12.523 31.249c.412-4.741-1.244-10.703 2.636-11.076 2.72-.262 2.517 2.18 2.517 4.37l.02 6.727 3.507-.049c.123-2.174.257-10.147-.543-11.65-.68-1.28-2.039-2.185-4.085-2.149-2.68.05-3.547 1.833-4.025 1.911l.01-7.328L9 12l.04 19.273 3.482-.023.001-.001zm14-.005c.369-4.707-1.218-10.719 2.643-11.073 2.694-.248 2.507 2.198 2.507 4.372l.023 6.723 3.482.006c.209-1.512.039-4.373.039-6.03 0-1.75.196-4.094-.526-5.58-1.113-2.294-4.206-2.808-6.368-1.668-1.215.64-1.138 1.01-1.78 1.354l-.036-7.335-3.5.039.012 19.212 3.505-.02h-.002z"/><rect x=".5" y=".5" width="43" height="42" rx="21"/></svg>