<?xml version="1.0" encoding="utf-8"?><svg width="18" height="14" xmlns="http://www.w3.org/2000/svg" viewBox="0 0 18 14"><path fill-rule="evenodd" clip-rule="evenodd" d="M2.88 13.14c.257-3.08-.775-6.954 1.643-7.196 1.695-.17 1.568 1.416 1.568 2.84l.012 4.37 2.186-.031c.077-1.413.16-6.594-.338-7.57-.424-.832-1.27-1.42-2.546-1.396-1.67.031-2.21 1.19-2.508 1.241L2.904.637.685.633.71 13.156l2.17-.015zm8.724-.003c.23-3.058-.759-6.964 1.647-7.195 1.679-.16 1.562 1.429 1.562 2.841l.014 4.369 2.17.004c.13-.983.024-2.842.024-3.918 0-1.137.123-2.66-.328-3.627-.693-1.49-2.62-1.824-3.967-1.083-.758.416-.71.656-1.11.88L11.595.642 9.413.667 9.42 13.15l2.184-.012h-.001z"/></svg>