<?xml version="1.0" encoding="utf-8"?><svg width="33" height="33" xmlns="http://www.w3.org/2000/svg" viewBox="0 0 33 33"><path fill-rule="evenodd" clip-rule="evenodd" d="M5.027 7.348l2.16-2.223C10.41 6.939 9.3 7.667 11.902 6.357c.486-.244.737-.329 1.298-.506.574-.182.886-.221 1.099-.706.116-.264.527-2.784.527-3.212h3.222c.013.586.208 1.36.313 2.008.138.856.093 1.341.775 1.674.577.282 1.18.357 1.793.656 1.97.958 1.705 1.064 4.024-.656.398-.295.286-.333.83-.46l2.093 2.032c-.26 1.01-1.836 2.269-1.836 3.125l1.367 3.531c.348.639.905.611 1.708.742 2.441.395 1.953-.353 1.953 3.203 0 .451-.308.371-.727.434-3.822.567-2.54.423-3.569 2.619-.294.627-.732 1.165-.732 1.846 0 .856 1.576 2.114 1.805 3.093l-2.031 2.094c-1.138-.292-2.125-1.836-3.254-1.836l-3.505 1.394c-1.041.673-.407 3.633-1.265 3.633-3.227 0-2.87.218-3.011-.727-.57-3.832-.429-2.536-2.619-3.568-2.396-1.13-1.402-1.081-4.81 1.202l-2.224-2.16c1.72-3.143 2.595-2.009 1.233-4.714-.244-.485-.33-.737-.506-1.297-.183-.58-.19-.844-.736-1.07-.332-.136-2.748-.546-3.182-.556v-3.223c.654 0 1.359-.186 2.026-.294 2.242-.36 1.379-.6 2.27-2.5 1.145-2.444 1.094-1.382-1.202-4.811zM14.695 0h3.34c.968.134 1.646.555 1.895 1.726.488 2.302.015 2.09 1.021 2.46 2.171.797 1.083 1.134 3.282-.45 1.923-1.383 3.075.175 4.03 1.13 1.398 1.398 2.265 2.145.74 4.286-.308.433-.6.838-.901 1.29.319.603.73 1.457.902 2.19 1.302.03 3.996.402 3.996 2.192v3.285c-.061.434-.18.806-.4 1.084-.143.18.033-.016-.19.198-.732.707-1.396.668-2.622.858-1.041.162-.661.022-1.53 1.967-.275.617.171.86 1.005 2.017 1.345 1.869-.115 3.015-1 3.9-1.147 1.146-2.216 2.469-4.104 1.075-1.453-1.072-1.385-1.231-2.114-.857-1.583.812-1.587.067-1.828 1.664-.064.43-.135.972-.255 1.42-.139.515-.275.697-.633 1.042l-.288.228-.253.134c-.26.113-.273.161-.612.161h-3.237c-1.285-.122-1.782-.657-2.103-2.652-.337-2.09-.046-1.004-2.395-2.246L8.97 29.209c-2.002 1.476-2.816.341-4.168-1.01-.694-.694-1.58-1.219-1.58-2.546 0-1.57 2.036-2.31 1.519-3.437-1.101-2.396-.084-1.558-3.034-2.137C.707 19.882 0 18.976 0 18.305V15c.097-.695.34-1.25.9-1.595 1.656-1.02 2.74.131 3.285-1.355a11.93 11.93 0 01.713-1.607c-.137-.158-.269-.307-.408-.494l-1.01-1.44c-1.086-1.892.571-2.95 1.708-4.092 1.318-1.322 2-1.7 3.76-.472.5.35.882.632 1.364.955.401-.093.456-.172.817-.343 1.599-.76 1.334.01 1.632-1.849.149-.928.47-2.706 1.934-2.706V0z"/><path fill-rule="evenodd" clip-rule="evenodd" d="M11.344 17.144c0-1.4-.112-1.688.512-2.968.492-1.01 1.222-1.777 2.234-2.278 1.75-.867 3.988-.775 5.467.384 3.29 2.577 2.55 7.235-.647 8.819-4.008 1.986-7.566-1.408-7.566-3.957zm-1.934-1.16v1.031c0 3.335 3.24 6.575 6.575 6.575h1.03c5.534 0 9.136-7.566 4.548-12.153-4.56-4.56-12.153-1.017-12.153 4.547z"/></svg>