<?xml version="1.0" encoding="utf-8"?><svg width="59" height="59" xmlns="http://www.w3.org/2000/svg" viewBox="0 0 59 59"><g fill-rule="evenodd" clip-rule="evenodd"><path d="M8.988 13.136l3.863-3.974c5.76 3.243 3.776 4.546 8.426 2.204.87-.437 1.318-.588 2.32-.906 1.027-.325 1.585-.395 1.966-1.261.208-.473.941-4.977.941-5.743h5.762c.023 1.049.372 2.433.56 3.59.247 1.53.165 2.398 1.385 2.993 1.032.504 2.109.638 3.206 1.172 3.522 1.713 3.049 1.903 7.194-1.172.712-.528.511-.595 1.483-.821l3.744 3.631c-.464 1.807-3.283 4.057-3.283 5.588L49 24.75c.621 1.142 1.616 1.092 3.053 1.325 4.364.708 3.49-.63 3.49 5.728 0 .806-.55.664-1.3.775-6.832 1.015-4.538.756-6.38 4.683-.525 1.121-1.308 2.082-1.308 3.3 0 1.53 2.818 3.78 3.226 5.531l-3.631 3.744c-2.034-.523-3.8-3.283-5.817-3.283l-6.266 2.492c-1.862 1.203-.729 6.496-2.262 6.496-5.77 0-5.133.389-5.384-1.3-1.017-6.851-.767-4.533-4.682-6.38-4.284-2.019-2.506-1.932-8.601 2.15l-3.974-3.863c3.075-5.618 4.64-3.59 2.204-8.427-.437-.867-.59-1.317-.906-2.32-.326-1.038-.34-1.508-1.316-1.91-.592-.245-4.913-.98-5.688-.997v-5.761c1.17 0 2.429-.334 3.623-.526 4.008-.645 2.464-1.074 4.056-4.47 2.048-4.369 1.958-2.47-2.147-8.602l-.002.002zM26.273 0h5.972c1.73.239 2.943.992 3.387 3.087.872 4.115.028 3.735 1.826 4.396 3.882 1.427 1.936 2.028 5.867-.802 3.439-2.475 5.498.312 7.205 2.02 2.5 2.5 4.051 3.833 1.325 7.662-.551.773-1.072 1.498-1.613 2.305.571 1.08 1.308 2.606 1.613 3.918 2.328.052 7.145.717 7.145 3.918v5.873c-.11.777-.323 1.44-.716 1.938-.255.322.06-.029-.337.355-1.31 1.262-2.498 1.192-4.69 1.533-1.861.29-1.181.038-2.734 3.517-.493 1.102.305 1.536 1.795 3.605 2.405 3.342-.204 5.39-1.788 6.974-2.049 2.05-3.961 4.413-7.337 1.922-2.598-1.918-2.476-2.202-3.78-1.533-2.83 1.451-2.836.12-3.267 2.974-.115.77-.242 1.74-.457 2.54-.248.921-.491 1.246-1.132 1.863l-.513.408-.454.239c-.465.202-.487.288-1.094.288H26.71c-2.297-.218-3.186-1.175-3.76-4.742-.601-3.737-.082-1.794-4.281-4.016l-2.63 1.98c-3.58 2.639-5.036.61-7.453-1.806-1.24-1.24-2.823-2.178-2.823-4.552 0-2.805 3.638-4.13 2.714-6.144-1.968-4.285-.15-2.787-5.424-3.822C1.263 35.548 0 33.926 0 32.728v-5.91c.173-1.244.609-2.236 1.61-2.852 2.959-1.824 4.897.233 5.873-2.423.423-1.151.77-1.92 1.275-2.874-.246-.282-.481-.55-.73-.883l-1.805-2.574c-1.942-3.384 1.02-5.277 3.053-7.317 2.356-2.363 3.576-3.04 6.72-.843.897.626 1.578 1.13 2.441 1.708.717-.167.815-.309 1.46-.615 2.859-1.36 2.385.02 2.918-3.305.266-1.66.842-4.838 3.458-4.838V0z"/><path d="M20.282 30.652c0-2.505-.2-3.02.915-5.307.88-1.806 2.185-3.176 3.995-4.073 3.129-1.55 7.129-1.386 9.774.687 5.88 4.607 4.558 12.936-1.157 15.767-7.166 3.55-13.527-2.517-13.527-7.075zm-3.457-2.074v1.844c0 5.961 5.791 11.753 11.753 11.753h1.844c9.893 0 16.332-13.527 8.13-21.728-8.151-8.151-21.727-1.817-21.727 8.13z"/></g></svg>