<?xml version="1.0" encoding="utf-8"?><svg width="43" height="40" xmlns="http://www.w3.org/2000/svg" viewBox="0 0 43 40"><g fill-rule="evenodd" clip-rule="evenodd"><path d="M8.758 19.894c0-.457 2.027-3.407 2.676-4.108.119-.128.211-.202.334-.33.158-.164.182-.24.33-.401.69-.748 2.146-1.846 3.056-2.398 1.467-.89 3.36-1.479 5.119-1.665.709-.076 1.862-.062 2.58-.006.358.027.904.117 1.219.178.781.15 1.466.37 2.119.608.656.238 1.248.567 1.833.893.632.353 1.083.694 1.617 1.11.768.6 1.114.966 1.745 1.647.883.955 1.35 1.506 2.084 2.704.145.238.96 1.593.96 1.768 0 .458-2.028 3.407-2.677 4.108l-.665.731c-.637.692-2.25 1.936-3.064 2.39-1.678.936-3.125 1.466-5.11 1.674-.217.022-.438-.005-.652.012-.83.067-.313.114-1.277.007-.216-.024-.437.003-.652-.014-2.587-.2-5.733-1.611-7.501-3.405-.254-.258-.477-.385-.734-.664l-1.258-1.468c-.41-.504-2.082-2.986-2.082-3.37zm-2.195 0c0 .593 1.702 3.32 2.25 4.067l1.06 1.336c.144.164.244.226.386.411.35.454.778.83 1.206 1.189.172.145.24.242.418.38.172.132.244.216.437.361 2.479 1.859 5.417 3.23 8.741 3.23 3.52 0 5.586-.573 8.36-2.216 1.485-.88 2.708-2.08 3.862-3.32l2.315-3.271c.175-.296 1.026-1.89 1.026-2.167 0-.43-1.192-2.491-1.61-3.113-.22-.328-.41-.642-.64-.954-.753-1.02-1.682-2.12-2.652-2.936-.172-.145-.24-.242-.418-.38-.172-.132-.244-.216-.437-.361l-.457-.341c-2.188-1.645-5.383-2.889-8.284-2.889-3.515 0-5.59.576-8.36 2.216-.675.4-2.141 1.53-2.698 2.09-1.256 1.262-1.856 2.003-2.869 3.516l-.617.979c-.172.324-1.019 1.888-1.019 2.173z"/><path d="M16.605 19.894c0-.278.084-.803.137-1.06a4.842 4.842 0 011.343-2.448c.648-.648 1.476-1.135 2.393-1.331 3.643-.78 6.707 2.338 5.967 5.9a4.841 4.841 0 01-1.343 2.448 4.81 4.81 0 01-1.447 1.013c-1.044.466-2.01.56-3.122.33-2.276-.474-3.928-2.594-3.928-4.852zm-1.995-.399c0 1.862.253 2.934 1.276 4.444 1.067 1.573 3.308 2.939 5.308 2.939 1.862 0 2.934-.253 4.444-1.277 1.573-1.066 2.939-3.307 2.939-5.308 0-1.332-.06-2.192-.665-3.392-.765-1.513-1.733-2.523-3.282-3.303-2.662-1.34-5.914-.703-7.975 1.358-1.09 1.09-2.045 2.84-2.045 4.54zM32.62 2.432h7.297V9.73h2.433V0h-9.73v2.432zM.837 9.73H3.27V2.432h7.297V0H.837v9.73zM.837 39.79h9.73v-2.432H3.27V30.06H.837v9.73zM39.917 37.358H32.62v2.432h9.73v-9.73h-2.433v7.298z"/><path d="M20.596 19.96c-.008-.052.054-.319.076-.388.31-.965 1.828-.842 1.903.268.082 1.217-1.772 1.46-1.98.12zm-1.995-.199c0 1.028.207 1.575.847 2.212.279.277.409.419.79.606 1.494.73 3.323.133 4.04-1.33 1.008-2.06-.538-4.348-2.551-4.348-1.775 0-3.126 1.261-3.126 2.86z"/></g></svg>