<?xml version="1.0" encoding="utf-8"?><svg width="62" height="59" xmlns="http://www.w3.org/2000/svg" viewBox="0 0 62 59"><g fill-rule="evenodd" clip-rule="evenodd"><path d="M11.797 29.392c0-.674 2.985-5.018 3.941-6.05.175-.188.312-.298.493-.486.232-.241.267-.353.486-.59 1.016-1.102 3.16-2.719 4.5-3.532 2.161-1.311 4.948-2.178 7.539-2.453 1.044-.11 2.742-.09 3.8-.008.527.04 1.331.173 1.795.262 1.15.221 2.159.546 3.12.895.967.351 1.838.835 2.7 1.316.93.52 1.595 1.021 2.38 1.635 1.132.884 1.642 1.421 2.57 2.425 1.301 1.407 1.99 2.218 3.07 3.983.214.35 1.413 2.346 1.413 2.603 0 .674-2.985 5.018-3.941 6.05l-.98 1.077c-.938 1.018-3.314 2.851-4.512 3.52-2.472 1.378-4.602 2.159-7.526 2.464-.32.034-.644-.006-.96.019-1.223.098-.46.167-1.88.01-.319-.036-.644.004-.96-.02-3.811-.295-8.443-2.374-11.048-5.016-.374-.38-.702-.567-1.08-.977l-1.854-2.162c-.604-.743-3.066-4.398-3.066-4.965zm-3.232 0c0 .873 2.506 4.89 3.315 5.99l1.558 1.968c.213.24.36.333.57.605.516.667 1.146 1.221 1.776 1.75.254.214.353.356.616.56.253.194.359.32.643.532 3.651 2.737 7.978 4.756 12.874 4.756 5.184 0 8.226-.843 12.31-3.263 2.189-1.296 3.989-3.064 5.689-4.89l3.41-4.817c.258-.435 1.51-2.782 1.51-3.191 0-.633-1.756-3.669-2.37-4.584-.323-.483-.605-.946-.944-1.406-1.108-1.502-2.477-3.123-3.905-4.323-.254-.214-.352-.356-.616-.56-.253-.194-.358-.319-.642-.532-.26-.194-.415-.308-.673-.502-3.224-2.423-7.929-4.254-12.202-4.254-5.176 0-8.232.847-12.31 3.263-.994.589-3.154 2.253-3.974 3.078-1.85 1.858-2.734 2.95-4.225 5.177l-.909 1.443c-.254.477-1.501 2.78-1.501 3.2z"/><path d="M23.355 29.392c0-.41.123-1.183.201-1.561.292-1.402.995-2.622 1.978-3.605.954-.955 2.173-1.671 3.524-1.96 5.365-1.15 9.878 3.443 8.787 8.688-.291 1.402-.994 2.623-1.977 3.606a7.08 7.08 0 01-2.132 1.492c-1.537.686-2.959.826-4.597.485-3.352-.697-5.784-3.82-5.784-7.145zm-2.939-.587c0 2.742.372 4.32 1.88 6.544 1.57 2.317 4.87 4.328 7.817 4.328 2.742 0 4.32-.372 6.544-1.88 2.317-1.57 4.328-4.87 4.328-7.817 0-1.962-.087-3.23-.98-4.996-1.125-2.228-2.55-3.716-4.832-4.864-3.92-1.975-8.71-1.035-11.745 2-1.605 1.605-3.012 4.182-3.012 6.685zM46.94 3.676h10.747v10.747h3.582V.093H46.94v3.583zM.132 14.423h3.583V3.676H14.46V.094H.132v14.329zM.132 58.694h14.33v-3.582H3.714V44.365H.132v14.329zM57.687 55.112H46.94v3.582h14.33v-14.33h-3.583v10.748z"/><path d="M29.231 29.49c-.012-.078.08-.47.113-.572.455-1.422 2.692-1.24 2.802.395.121 1.792-2.61 2.149-2.915.177zm-2.938-.294c0 1.514.305 2.32 1.248 3.258.41.407.602.616 1.165.892 2.198 1.076 4.893.196 5.948-1.96 1.485-3.032-.792-6.401-3.758-6.401-2.613 0-4.603 1.857-4.603 4.211z"/></g></svg>