<?xml version="1.0" encoding="utf-8"?><svg width="36" height="36" xmlns="http://www.w3.org/2000/svg" viewBox="0 0 36 36"><path fill-rule="evenodd" clip-rule="evenodd" d="M6.845 17.529c0-.404 1.751-3.002 2.312-3.62.103-.113.183-.178.29-.29.136-.145.156-.212.285-.354.596-.66 1.854-1.626 2.64-2.113 1.268-.784 2.904-1.303 4.424-1.467.613-.067 1.61-.055 2.23-.006.31.025.781.104 1.053.157a11.59 11.59 0 011.831.536c.567.21 1.078.5 1.584.787.546.31.936.611 1.397.978.664.53.963.851 1.508 1.452.764.84 1.167 1.326 1.802 2.382.125.21.829 1.404.829 1.558 0 .403-1.752 3.002-2.313 3.619l-.575.645c-.55.609-1.945 1.705-2.648 2.105-1.45.825-2.7 1.292-4.416 1.475-.187.02-.378-.004-.563.011-.718.059-.27.1-1.104.006-.187-.022-.377.002-.563-.012-2.236-.177-4.954-1.42-6.482-3.001-.22-.227-.412-.34-.634-.585L8.644 20.5c-.355-.444-1.8-2.631-1.8-2.97zm-1.897 0c0 .522 1.47 2.925 1.945 3.583l.915 1.177c.125.144.211.2.334.362.303.4.673.731 1.042 1.048.15.128.207.213.362.334.148.117.21.191.377.319 2.143 1.637 4.681 2.845 7.554 2.845 3.042 0 4.827-.504 7.224-1.952 1.284-.775 2.34-1.833 3.338-2.925l2.001-2.882c.151-.26.886-1.665.886-1.91 0-.378-1.03-2.194-1.39-2.742-.19-.289-.356-.566-.555-.841-.65-.899-1.453-1.869-2.29-2.587-.15-.128-.208-.213-.362-.334-.149-.117-.21-.191-.377-.319l-.395-.3c-1.892-1.45-4.652-2.545-7.16-2.545-3.037 0-4.83.507-7.224 1.952-.583.352-1.85 1.348-2.332 1.841-1.085 1.112-1.604 1.766-2.479 3.098l-.533.863c-.149.285-.88 1.663-.88 1.915z"/><path fill-rule="evenodd" clip-rule="evenodd" d="M13.627 17.529c0-.245.072-.708.118-.934a4.29 4.29 0 011.16-2.157c.56-.571 1.276-1 2.069-1.173 3.148-.687 5.796 2.06 5.156 5.198a4.289 4.289 0 01-1.16 2.157c-.36.367-.77.674-1.252.893-.901.41-1.736.494-2.697.29-1.967-.417-3.394-2.285-3.394-4.274zm-1.725-.352c0 1.64.219 2.585 1.103 3.915.922 1.386 2.859 2.59 4.587 2.59 1.61 0 2.536-.223 3.84-1.125 1.36-.94 2.54-2.914 2.54-4.677 0-1.174-.051-1.932-.575-2.988-.66-1.333-1.497-2.223-2.835-2.91-2.3-1.182-5.112-.62-6.892 1.196-.942.96-1.768 2.502-1.768 4zM27.466 2.143h6.306v6.43h2.102V0h-8.408v2.143zM0 8.573h2.102v-6.43h6.306V0H0v8.573zM0 35.06h8.408v-2.144H2.102v-6.43H0v8.573zM33.773 32.916h-6.307v2.143h8.409v-8.572h-2.102v6.429z"/><path fill-rule="evenodd" clip-rule="evenodd" d="M17.075 17.587a1.76 1.76 0 01.066-.342c.267-.85 1.58-.742 1.645.236.07 1.072-1.532 1.286-1.71.106zm-1.724-.175c0 .905.179 1.387.732 1.948.241.244.353.37.684.534 1.29.644 2.87.118 3.49-1.172.872-1.815-.464-3.83-2.205-3.83-1.533 0-2.701 1.11-2.701 2.52z"/></svg>