<?xml version="1.0" encoding="utf-8"?><svg width="38" height="39" xmlns="http://www.w3.org/2000/svg" viewBox="0 0 38 39"><path d="M1.776.886A.887.887 0 110 .885a.887.887 0 011.775.001zM1.776 25.704a.887.887 0 11-1.774 0 .887.887 0 011.774 0zM13.85.886a.887.887 0 11-1.774-.001.887.887 0 011.774.001zM13.85 25.704a.887.887 0 11-1.774 0 .887.887 0 011.774 0zM25.925.886a.887.887 0 11-1.774-.001.887.887 0 011.774.001zM25.925 25.704a.887.887 0 11-1.774 0 .887.887 0 011.774 0zM38 .886a.887.887 0 11-1.774-.001A.887.887 0 0138 .886zM38 25.704a.887.887 0 11-1.774 0 .887.887 0 011.774 0zM1.776 13.296a.887.887 0 11-1.774-.002.887.887 0 011.774.002zM1.776 38.114a.887.887 0 11-1.774-.002.887.887 0 011.774.002zM13.85 13.296a.887.887 0 11-1.774-.002.887.887 0 011.774.002zM13.85 38.114a.887.887 0 11-1.774-.002.887.887 0 011.774.002zM25.925 13.296a.887.887 0 11-1.774-.002.887.887 0 011.774.002zM25.925 38.114a.887.887 0 11-1.774-.002.887.887 0 011.774.002zM38 13.296a.887.887 0 11-1.774-.002.887.887 0 011.774.002zM38 38.114a.887.887 0 11-1.774-.002.887.887 0 011.774.002z"/></svg>