<?xml version="1.0" encoding="utf-8"?><svg width="68" height="72" xmlns="http://www.w3.org/2000/svg" viewBox="0 0 68 72"><path d="M4.094 1.93c0 1.065-.916 1.929-2.047 1.929C.917 3.859 0 2.995 0 1.929 0 .864.917 0 2.047 0c1.13 0 2.047.864 2.047 1.93zM4.094 46.692c0 1.066-.916 1.93-2.047 1.93-1.13 0-2.047-.864-2.047-1.93 0-1.065.917-1.93 2.047-1.93 1.13 0 2.047.865 2.047 1.93zM25.384 1.93c0 1.065-.917 1.929-2.047 1.929-1.13 0-2.047-.864-2.047-1.93C21.29.864 22.206 0 23.337 0c1.13 0 2.047.864 2.047 1.93zM25.384 46.692c0 1.066-.917 1.93-2.047 1.93-1.13 0-2.047-.864-2.047-1.93 0-1.065.916-1.93 2.047-1.93 1.13 0 2.047.865 2.047 1.93zM45.855 1.93c0 1.065-.917 1.929-2.047 1.929-1.131 0-2.048-.864-2.048-1.93C41.76.864 42.677 0 43.807 0c1.131 0 2.047.864 2.047 1.93zM45.855 46.692c0 1.066-.917 1.93-2.047 1.93-1.131 0-2.048-.864-2.048-1.93 0-1.065.917-1.93 2.047-1.93 1.131 0 2.047.865 2.047 1.93zM67.144 1.93c0 1.065-.916 1.929-2.047 1.929-1.13 0-2.047-.864-2.047-1.93C63.05.864 63.967 0 65.097 0c1.13 0 2.047.864 2.047 1.93zM67.144 46.692c0 1.066-.916 1.93-2.047 1.93-1.13 0-2.047-.864-2.047-1.93 0-1.065.917-1.93 2.047-1.93 1.13 0 2.047.865 2.047 1.93zM4.094 24.31c0 1.066-.916 1.93-2.047 1.93C.917 26.24 0 25.376 0 24.31c0-1.065.917-1.929 2.047-1.929 1.13 0 2.047.864 2.047 1.93zM4.094 69.074c0 1.065-.916 1.929-2.047 1.929-1.13 0-2.047-.864-2.047-1.93 0-1.065.917-1.929 2.047-1.929 1.13 0 2.047.864 2.047 1.93zM25.384 24.31c0 1.066-.917 1.93-2.047 1.93-1.13 0-2.047-.864-2.047-1.93 0-1.065.916-1.929 2.047-1.929 1.13 0 2.047.864 2.047 1.93zM25.384 69.074c0 1.065-.917 1.929-2.047 1.929-1.13 0-2.047-.864-2.047-1.93 0-1.065.916-1.929 2.047-1.929 1.13 0 2.047.864 2.047 1.93zM45.855 24.31c0 1.066-.917 1.93-2.047 1.93-1.131 0-2.048-.864-2.048-1.93 0-1.065.917-1.929 2.047-1.929 1.131 0 2.047.864 2.047 1.93zM45.855 69.074c0 1.065-.917 1.929-2.047 1.929-1.131 0-2.048-.864-2.048-1.93 0-1.065.917-1.929 2.047-1.929 1.131 0 2.047.864 2.047 1.93zM67.144 24.31c0 1.066-.916 1.93-2.047 1.93-1.13 0-2.047-.864-2.047-1.93 0-1.065.917-1.929 2.047-1.929 1.13 0 2.047.864 2.047 1.93zM67.144 69.074c0 1.065-.916 1.929-2.047 1.929-1.13 0-2.047-.864-2.047-1.93 0-1.065.917-1.929 2.047-1.929 1.13 0 2.047.864 2.047 1.93z"/></svg>