<?xml version="1.0" encoding="utf-8"?><svg width="34" height="33" xmlns="http://www.w3.org/2000/svg" viewBox="0 0 34 33"><path d="M9.055 0c1.379 0 2.627.56 3.53 1.465a4.995 4.995 0 011.344 2.452h18.756a1.083 1.083 0 010 2.169H13.93a4.997 4.997 0 01-4.874 3.917 4.971 4.971 0 01-3.53-1.465 4.996 4.996 0 01-1.344-2.452H1.082a1.083 1.083 0 010-2.169h3.1A4.997 4.997 0 019.054 0zm5.154 22.997a4.996 4.996 0 014.874 3.918h13.602a1.083 1.083 0 010 2.168H19.082a4.996 4.996 0 01-1.344 2.452A4.971 4.971 0 0114.208 33a4.971 4.971 0 01-3.53-1.465 4.995 4.995 0 01-1.344-2.453H1.082a1.083 1.083 0 010-2.168h8.252a4.997 4.997 0 014.875-3.917zm2 2.998a2.817 2.817 0 00-2-.83 2.828 2.828 0 00-2.828 2.834 2.828 2.828 0 105.656 0c0-.783-.317-1.491-.829-2.004zm8.503-14.515a4.995 4.995 0 00-4.874 3.918H1.082a1.083 1.083 0 000 2.167h18.756a4.996 4.996 0 001.345 2.453 4.971 4.971 0 003.53 1.465 4.995 4.995 0 004.874-3.918h3.098a1.083 1.083 0 000-2.168h-3.099a4.997 4.997 0 00-4.874-3.917zm-2 2.998a2.817 2.817 0 012-.83 2.828 2.828 0 012.828 2.834 2.828 2.828 0 11-5.656 0c0-.783.317-1.491.828-2.004zM11.056 2.998a2.817 2.817 0 00-2-.83 2.828 2.828 0 00-2.828 2.834 2.828 2.828 0 105.656 0c0-.783-.317-1.491-.829-2.004z"/></svg>