<?xml version="1.0" encoding="utf-8"?><svg width="60" height="75" xmlns="http://www.w3.org/2000/svg" viewBox="0 0 60 75"><path d="M35.655 11.779a1.976 1.976 0 000-2.806L27.172.557A2.008 2.008 0 0024.37.58a1.976 1.976 0 00-.024 2.781l3.987 3.957a30.139 30.139 0 00-16.881 6.323A29.755 29.755 0 001.28 28.43a29.537 29.537 0 00.22 17.901 29.77 29.77 0 0010.533 14.536 2.012 2.012 0 002.8-.396 1.972 1.972 0 00-.4-2.778A25.797 25.797 0 015.173 44.69a25.599 25.599 0 01.197-15.919 25.81 25.81 0 019.58-12.77 26.14 26.14 0 0115.314-4.76c.096 0 .2-.007.292-.019l-6.211 6.166a1.976 1.976 0 00.024 2.782 2.008 2.008 0 002.803.024l8.483-8.416zm-11.31 50.505a1.976 1.976 0 000 2.805l8.483 8.417a2.008 2.008 0 002.803-.025 1.976 1.976 0 00.024-2.78l-3.987-3.957a30.139 30.139 0 0016.881-6.324 29.755 29.755 0 0010.17-14.788 29.537 29.537 0 00-.22-17.9 29.77 29.77 0 00-10.533-14.537 2.008 2.008 0 00-3.137 1.095 1.97 1.97 0 00.737 2.08 25.797 25.797 0 019.261 13.002 25.6 25.6 0 01-.198 15.92 25.811 25.811 0 01-9.582 12.771 26.14 26.14 0 01-15.315 4.757c-.098 0-.195.006-.292.02l6.215-6.167a1.983 1.983 0 00.61-1.41 1.97 1.97 0 00-.585-1.42 2.001 2.001 0 00-1.431-.58 2.013 2.013 0 00-1.421.605l-8.483 8.416z"/></svg>