<?xml version="1.0" encoding="utf-8"?><svg width="19" height="11" xmlns="http://www.w3.org/2000/svg" viewBox="0 0 19 11"><path fill-rule="evenodd" clip-rule="evenodd" d="M0 .46c0 .512.086.65.21 1.08.093.316.202.574.325.866.121.287.237.563.375.82.066.125.124.276.197.401.634 1.082.857 1.517 1.607 2.587.459.653.6.796 1.055 1.35.506.615 1.272 1.23 1.958 1.665 1.253.794 3 1.355 4.53 1.083 1.124-.2.443-1.275.667-2.686.04-.252.172-.354.465-.354.586 0 1.478.689 1.847 1.046.177.172.343.259.503.456.152.187.306.314.48.478.526.495.842 1.132 1.791 1.132h1.783c.585 0 .808-.191.837-.458v-.13c-.039-.408-.418-.932-.66-1.24a10.784 10.784 0 00-.42-.499c-.092-.104-.124-.141-.22-.24L15.673 6.14c-.72-.683-.37-.742.402-1.848.282-.404.543-.777.83-1.183.511-.726.73-1.15 1.118-1.877.315-.592.473-1.221-.522-1.221h-1.856c-.618 0-.857.244-1.05.696-.186.437-.801 1.53-1.044 1.912-.345.542-1.574 2.406-2.309 2.406-.442 0-.327-.683-.327-1.245 0-.569.032-2.58-.002-2.972-.046-.544-.089-.797-.726-.797H7.205c-.466 0-.884.322-.396.894.345.405.577.827.577 1.422 0 .492.049 2.998-.041 3.28-.235.736-1.206-.4-1.386-.609-.06-.07-.087-.112-.137-.18l-.97-1.499c-.537-.912-.727-1.436-1.104-2.34C3.682.82 3.627.635 3.542.483 3.349.135 3.122.01 2.584.01 2.149.01.58-.044.27.095.13.157 0 .285 0 .46z"/></svg>