<?xml version="1.0" encoding="utf-8"?><svg width="44" height="43" xmlns="http://www.w3.org/2000/svg" viewBox="0 0 44 43"><path fill-rule="evenodd" clip-rule="evenodd" d="M6 15.77c0 .791.14 1.005.347 1.669.152.49.331.89.534 1.341.2.444.39.87.616 1.268.109.193.204.426.325.62 1.044 1.673 1.41 2.346 2.646 4.001.754 1.01.986 1.232 1.735 2.087.833.953 2.093 1.904 3.223 2.577 2.062 1.227 4.937 2.095 7.456 1.674 1.85-.31.728-1.972 1.098-4.155.066-.39.282-.546.765-.546.963 0 2.432 1.065 3.039 1.618.291.265.565.4.828.704.25.29.504.487.79.74.866.765 1.386 1.751 2.948 1.751h2.935c.962 0 1.33-.296 1.377-.709v-.2c-.064-.632-.688-1.443-1.086-1.918-.239-.284-.434-.499-.692-.773-.151-.16-.204-.218-.363-.37l-2.725-2.595c-1.183-1.056-.609-1.148.662-2.858.464-.625.895-1.2 1.366-1.83.842-1.122 1.202-1.777 1.84-2.902.518-.916.779-1.89-.858-1.89H31.75c-1.018 0-1.411.379-1.728 1.078-.306.675-1.32 2.367-1.719 2.957-.567.837-2.59 3.72-3.8 3.72-.728 0-.538-1.056-.538-1.925 0-.88.052-3.991-.003-4.596-.077-.842-.147-1.233-1.195-1.233h-4.91c-.766 0-1.455.498-.651 1.383.568.626.95 1.28.95 2.2 0 .76.08 4.636-.069 5.073-.386 1.137-1.984-.62-2.28-.942-.1-.108-.144-.175-.227-.28l-1.597-2.317c-.883-1.411-1.195-2.221-1.816-3.62-.108-.244-.199-.532-.338-.767-.319-.537-.693-.73-1.578-.73-.715 0-3.295-.085-3.807.13-.229.096-.445.293-.445.565z"/><rect x=".5" y=".5" width="43" height="42" rx="21"/></svg>