<?xml version="1.0" encoding="utf-8"?><svg width="19" height="11" xmlns="http://www.w3.org/2000/svg" viewBox="0 0 19 11"><path fill-rule="evenodd" clip-rule="evenodd" d="M.12.966c0 .493.082.626.203 1.04.089.305.194.554.312.835.117.276.228.542.36.79.065.12.12.265.19.386.612 1.042.827 1.461 1.55 2.492.44.63.577.767 1.015 1.3.488.593 1.225 1.186 1.887 1.605 1.206.764 2.89 1.304 4.364 1.042 1.083-.192.426-1.228.642-2.587.039-.243.166-.34.448-.34.564 0 1.424.663 1.779 1.007.17.166.33.25.485.439.146.18.294.303.462.46.507.477.811 1.091 1.726 1.091h1.717c.563 0 .778-.184.806-.441V9.96c-.037-.394-.402-.899-.636-1.194-.14-.177-.253-.311-.404-.482-.089-.1-.12-.136-.213-.23l-1.595-1.616c-.692-.658-.356-.715.388-1.78.271-.39.523-.749.8-1.14.492-.7.703-1.107 1.076-1.808.304-.57.456-1.177-.502-1.177h-1.788c-.596 0-.826.236-1.011.671-.18.42-.773 1.474-1.007 1.842-.332.522-1.516 2.317-2.223 2.317-.427 0-.316-.658-.316-1.199 0-.548.03-2.486-.002-2.863-.044-.524-.085-.768-.699-.768H7.06c-.448 0-.852.31-.381.862.333.39.556.797.556 1.37 0 .473.047 2.887-.04 3.16-.226.708-1.161-.386-1.335-.587-.058-.067-.084-.109-.132-.174L4.793 3.72c-.517-.878-.7-1.383-1.063-2.254-.063-.152-.117-.331-.198-.478-.187-.335-.405-.455-.924-.455C2.19.533.68.481.38.614.246.674.12.797.12.966z"/></svg>